<?xml version="1.0" encoding="utf-8"?>
<!-- Generator: Adobe Illustrator 27.0.0, SVG Export Plug-In . SVG Version: 6.00 Build 0)  -->
<svg version="1.1" id="Layer_1" xmlns="http://www.w3.org/2000/svg" xmlns:xlink="http://www.w3.org/1999/xlink" x="0px" y="0px"
	 width="40" height="40" viewBox="0 0 216 216" style="enable-background:new 0 0 216 216;" xml:space="preserve">
<style type="text/css">
	.st0{fill:#8D1360;}
	.st1{fill:#FFFFFF;}
	.st2{fill:#6C9CD3;}
	.st3{fill:#1E81C4;}
	.st4{fill:#5A94CE;}
	.st5{fill:#3586C7;}
	.st6{fill:#957485;}
	.st7{fill:#9F8090;}
	.st8{fill:#9F4B78;}
	.st9{fill:#B17091;}
	.st10{fill:#954E73;}
	.st11{fill:#BC85A1;}
	.st12{fill:#846072;}
	.st13{fill:#7B6786;}
	.st14{fill:#653E51;}
	.st15{fill:#0072BC;}
</style>
<g>
	<g>
		<path class="st0" d="M162.11,80.78c0,30.16-54.59,109.2-54.59,109.2s-54.6-79.04-54.6-109.2c0-30.16,24.45-54.59,54.6-54.59
			C137.67,26.18,162.11,50.62,162.11,80.78z"/>
		<path class="st1" d="M150.89,81.53c0,23.95-19.42,43.38-43.39,43.38c-23.95,0-43.38-19.42-43.38-43.38
			c0-23.96,19.43-43.39,43.38-43.39C131.47,38.14,150.89,57.57,150.89,81.53z"/>
	</g>
	<g>
		<path class="st2" d="M136.97,92.69C136.98,92.69,136.98,92.69,136.97,92.69c0.02-0.01,0.02-0.01,0.01,0H136.97 M127.74,92.95
			l-0.02-0.01L127.74,92.95L127.74,92.95 M133.52,95.83l-5.75-2.86l-0.02-0.03l9.22-0.25C136.72,92.85,133.52,95.83,133.52,95.83"/>
		<path class="st2" d="M127.74,92.94l-0.01-0.02L127.74,92.94L127.74,92.94 M129.72,101.97l-1.99-9.02l0.03,0.02l4.16,4.89
			C131.93,97.86,129.82,101.68,129.72,101.97 M129.72,101.98c0,0,0,0,0-0.01L129.72,101.98
			C129.72,101.98,129.72,101.98,129.72,101.98"/>
		<polyline class="st3" points="127.77,92.97 127.74,92.95 127.74,92.94 127.75,92.94 127.77,92.97 		"/>
		<g>
			<path class="st4" d="M112.14,80.42c1.41-0.61,9.35-3.83,20.6-3.83c2.82,0,5.84,0.2,9.02,0.7c0,0-0.3,0.84-0.83,2.23
				c-4.26-0.58-8.27-0.8-11.86-0.8C120.1,78.73,113.67,80.07,112.14,80.42"/>
			<path class="st5" d="M115.93,110.35c-6.24-14.83-4.44-27.6-4.12-29.5c0.04,2.19,0.52,14.18,6.1,28.15
				C116.68,109.85,115.93,110.35,115.93,110.35"/>
			<path class="st6" d="M110.64,110.97c0,0-0.85-0.3-2.24-0.83c2.03-14.9-0.4-26.65-0.89-28.79
				C108.27,83.11,113.1,95.07,110.64,110.97"/>
			<path class="st7" d="M94.97,96.95l0.01-0.02v0.02H94.97 M95.23,106.18c-0.16-0.25-3.14-3.45-3.14-3.45l2.86-5.75l0.03-0.02
				L95.23,106.18 M95.24,106.19L95.24,106.19l0-0.01C95.24,106.19,95.25,106.19,95.24,106.19"/>
			<path class="st8" d="M78.93,87.12c-0.86-1.23-1.35-1.97-1.35-1.97c8.98-3.77,17.2-4.61,22.71-4.61c3.6,0,6.04,0.35,6.79,0.48
				C104.9,81.07,92.9,81.54,78.93,87.12"/>
			<path class="st9" d="M94.98,96.96L94.98,96.96L95,96.94L94.98,96.96 M90.06,101.14c0,0-3.81-2.12-4.1-2.21l9-1.98l-0.01,0.03
				L90.06,101.14"/>
			<polyline class="st10" points="94.95,96.98 94.97,96.95 94.98,96.95 94.98,96.96 94.95,96.98 			"/>
			<path class="st11" d="M85.95,98.94C85.95,98.93,85.95,98.93,85.95,98.94c0-0.01,0.01-0.01,0.02-0.01L85.95,98.94"/>
			<path class="st2" d="M81.75,64.45C82,64.29,85.2,61.3,85.2,61.3l5.75,2.86l0.03,0.03L81.75,64.45 M81.73,64.46
				C81.73,64.46,81.73,64.45,81.73,64.46l0.01-0.01C81.74,64.45,81.74,64.46,81.73,64.46"/>
			<path class="st12" d="M106.91,76.3c-0.01-0.43-0.03-1.24-0.11-2.36l0,0c0,0,0-0.01,0-0.02l0,0c0,0,0,0,0-0.01
				c-0.32-4.62-1.51-14.56-5.99-25.77c1.23-0.85,1.98-1.35,1.98-1.35C109.02,61.64,107.22,74.4,106.91,76.3"/>
			<path class="st7" d="M90.98,64.18l-0.04-0.01l-4.17-4.88c0,0,2.12-3.82,2.21-4.11L90.98,64.18 M90.99,64.22l-0.01-0.02h0.01
				L90.99,64.22"/>
			<polyline class="st13" points="90.97,64.2 90.94,64.17 90.98,64.18 90.98,64.2 90.97,64.2 			"/>
			<path class="st14" d="M88.99,55.16c5.6-4.75,11.24-8.45,11.24-8.45c6.75,16.08,6.69,29.94,6.69,29.94L90.99,64.22L88.99,55.16"/>
			<path class="st5" d="M85.97,80.55c-2.82,0-5.84-0.2-9.02-0.7c0,0,0.3-0.84,0.83-2.24c4.27,0.58,8.27,0.79,11.86,0.79
				c8.98,0,15.4-1.34,16.93-1.69C105.17,77.33,97.23,80.55,85.97,80.55"/>
			<g>
				<path class="st15" d="M81.73,64.45c-3.25,6.58-5.48,12.94-5.48,12.94c17.25,2.67,30.67-0.75,30.67-0.75L91,64.2L81.73,64.45"/>
			</g>
			<path class="st15" d="M136.98,92.69c3.25-6.58,5.48-12.95,5.48-12.95c-17.25-2.67-30.67,0.76-30.67,0.76l15.92,12.44
				L136.98,92.69"/>
			<path class="st14" d="M129.73,101.98c-5.6,4.75-11.24,8.45-11.24,8.45c-6.76-16.09-6.69-29.94-6.69-29.94l15.92,12.44
				L129.73,101.98"/>
			<path class="st14" d="M95.23,106.19c6.59,3.25,12.95,5.48,12.95,5.48c2.66-17.25-0.76-30.68-0.76-30.68L94.98,96.92L95.23,106.19
				"/>
			<path class="st0" d="M85.95,98.94c-4.74-5.6-8.45-11.24-8.45-11.24c16.09-6.76,29.95-6.69,29.95-6.69L95,96.94L85.95,98.94"/>
		</g>
	</g>
</g>
</svg>
