<?xml version="1.0" encoding="utf-8"?>
<!-- Generator: Adobe Illustrator 26.5.0, SVG Export Plug-In . SVG Version: 6.00 Build 0)  -->
<svg version="1.1" id="Layer_1" xmlns="http://www.w3.org/2000/svg" xmlns:xlink="http://www.w3.org/1999/xlink" x="0px" y="0px"
	 viewBox="0 0 1385 755" style="enable-background:new 0 0 1385 755;" xml:space="preserve">
<style type="text/css">
	.st0{fill:#BA71A0;}
	.st1{fill:#6D696D;}
	.st2{fill:#F1F1F1;}
	.st3{fill:#A94E88;}
	.st4{fill:#8D1360;}
	.st5{fill:#FFFFFF;}
	.st6{fill:#6C9CD3;}
	.st7{fill:#1D80C3;}
	.st8{fill:#5A94CE;}
	.st9{fill:#3586C7;}
	.st10{fill:#957485;}
	.st11{fill:#9F8090;}
	.st12{fill:#9F4B78;}
	.st13{fill:#B17091;}
	.st14{fill:#944E73;}
	.st15{fill:#BC85A1;}
	.st16{fill:#846072;}
	.st17{fill:#7B6785;}
	.st18{fill:#663E51;}
	.st19{fill:#0072BB;}
	.st20{fill:#8C1360;}
</style>
<path id="quebec" style="cursor: pointer;" class="st0" d="M1335.7,264c-51.6,33.1-60.7,36.9-64.1,36.9l0,0c0.2,0.8,0.4,1.7,0.5,2.6c1.1,5.8,1.7,11.7,1.7,13.2
	c0,1.6-0.6,3.1-1.8,4.2c-1.8,1.7-4.4,2.3-9.1,2.3c-1.7,0-3.6-0.1-5.8-0.2c-1-0.1-2-0.1-2.5-0.1c-3.6,0-6.3-2.2-8.6-4
	c-0.4-0.3-0.8-0.7-1.2-1c-0.9,0.3-2.4,0.8-3.4,1.2c-3.2,1.3-6.6,2.6-9.6,2.6c-2.5,0-5.1-0.1-7.5-0.9c-3.8-1.4-5.9-4.5-5.9-8.5
	c0-1-1.7-3.8-2.5-5.3c-0.5-0.8-0.9-1.5-1.3-2.3c-1.2,4.3-3,9.4-7.9,10c-3.9,0.4-8.2-2-10.9-4.4c-3-2.6-4.6-5.7-4.6-8.6
	c0-2.5,0.5-4.3,0.8-5.5c0.2-0.9,0.4-1.3,0.4-1.9c0-1,0.2-2,0.6-2.8c-0.1,0-0.3,0-0.4,0c-0.4,0-0.7,0-1.1,0
	c-12.6,0-19.7-10.1-22.2-15.7c-1-0.5-2.3-1.1-3.4-2.1c-2.3-1.9-3.1-4.6-2.3-7.3c0.4-1.5,1.4-2.9,3-5.3c0.7-1,1.8-2.7,2.5-4
	c-2.7-2.2-6.4-6-6.7-9.8c-0.2-2.1,0.5-4,2-5.4c1.6-1.4,3.5-1.7,5.6-1.5c-0.9-1.3-1.4-2.5-1.5-3.8c-0.2-2.2,0.7-4.2,2.4-5.5
	c2.9-2.2,7.1-1.3,10-0.1c1.6,0.5,8.2,1.4,11.9,1.8c1.5-2.6,4.7-6.2,12.5-6.4c5.7-0.1,7.4-3.4,7.4-3.4l1.1-2.4l2.6-0.5
	c0.1,0,2-0.4,4.5-0.7c-1.3-3.4,0.2-5.8,0.9-6.9c0.4-0.6,0.7-1.2,0.9-2.7c-0.1-0.6-1.4-3-5.7-6.6c-3.7-3.1-7-5-7.8-5.3
	c-1.9-0.5-3.5-1.8-4.4-3.4c-1.2-2.2-0.9-4.5-0.3-6.4c-0.3,0-0.5,0-0.7,0c-1.7,0-3.5,0-5.4-0.1c-3.8-0.3-5.5-2.4-6.2-3.6
	c-1.2-2.1-1-4.2-0.4-6.1c-1.7-1.3-3.4-3.2-5.3-5.9c-3.8-5.4-3.5-12.2-3.3-18.2c0.1-3.1,0.3-7.9-0.8-9c-0.2-0.2-1-0.5-2.3-0.5
	c-7.5,0-13.6-1.5-18.2-4.4c-4.1-2.7-6.7-6.4-6.9-10.1c-0.1-0.9,0-1.9,0-3c0-1.3,0.1-3.7-0.2-4.8c-2-0.9-2.9-2.5-3.2-3.5
	c-0.5,0-1-0.1-1.4-0.2c-0.7,0-2.1,0.1-3,0.2c-4.9,0.4-7.5,0.6-9.6-0.8c-1.8-1.1-2.9-3.1-2.8-5.1c0.1-2.3,1.4-4.1,3.2-5.5
	c-0.8-0.8-1.6-1.7-2.1-2.8c-5.8,1.2-10.1-3.7-13.1-9.2c0.3,4.6,1.3,17.2,1.3,18.5c0,1.5,7,2.7,7,2.7s0.3,4-0.9,6.7
	c-1.2,2.7,1.2,7.3,2.4,4.9c1.2-2.4,3.1,3.4,1.5,4.9c-1.5,1.5-4.3-0.3-4,3.1c0.3,3.4,4.3,4.6,2.4,6.4c-1.8,1.8-7-0.3-7.3,6.1
	c-0.3,6.4-3.7,8.9-5.5,9.5s0.3,10.1-1.2,10.7c-1.5,0.6-7.6-7.9-11.6-7s-1.8,5.5-1.8,9.2s-1.2,9.2-3.4-0.9c-2.1-10.1-1.2-18.3-18-9.2
	c0,0-4.1,7.5-4.8,12.1c-0.7,4.6-5.1-0.3-5.1-5.1s4.4-5.3,4.4-9.2s-0.3-10.8-4.6-7.7c-4.3,3.1-7.7-2.6-8-13.1
	c-0.3-10.6-11.6,0-14,0.9s-14,4.8-3.9-2.9s15.2-3.6,12.5-8.4c-2.7-4.8-8.5-10.6-7.9-16c0.7-5.5-0.5-12-5.9-2.8s-3.8,1.9-7-1.6
	s-6.3,4.4-12.6,4.4s-11.4-2.2-12.3-8.9c-0.9-6.6-4.7-5.7-8.2-4.1s-8.9-3.5-11.7-3.8s-13.6-6-17.4-6.6c-3.8-0.6-13.3,15.2-15.5,14.9
	c-2.2-0.3-6-2.8-11.7-0.6c-5.7,2.2-24.7,0.6-27.8,0.3c-3.2-0.3-10.1,9.2-7.3,14.9s6.3,14.2,14.5,15.5c0,0,2.2,6.6,1.6,9.5
	c-0.6,2.8-1.9,7.6-0.9,11.7c0.9,4.1,7.6,4.7,9.2,5.1c1.6,0.3,0.3,11.1,7,13.6c6.6,2.5,3.5,17.9,2.5,21.5s-3.6,8.6-3.6,11.9
	c0,3.2-4.8,13.7,9,18.5c13.9,4.8,34.3,15.7,43.7,51.9s-29.8,65-31.1,65.3c-1.3,0.3,4.7,14.1,10,16.1c5.4,2,9.4,10.7,9.4,16.4
	c0,5.7,7,12.4,8.4,14.7c1.3,2.3,16.1,19.1,12.7,25.8c-3.3,6.7-5,11.4,2.7,17.1s1,10.4-1.7,8c-2.2-2-8-6.5-11.4-4.4l37.1,118l-0.1,1
	c-0.2,3.1,0.4,8.4,2.1,10c1.2,1.1,3.2,2.7,5.3,4.4c7.4,6,13,10.6,15.5,14.6c1.8,0.1,5.7-0.6,8.4-1.1c6.6-1.2,13.4-2.4,18.4-0.1
	c2,0.9,3.5,1.7,4.9,2.4c3.8,2,5.9,3.1,13.6,3.4c5.4,0.2,8.4,1.7,10.2,5.2c1,0,3.3-0.1,7.8-1c9.1-1.7,9.9-3.6,10.4-4.8
	c1.3-3,3.3-5.8,9.4-6.1c2.7-0.1,5.3-0.8,7.6-1.4c3.6-1,7.4-2,10.6,0.1c1.9,1.2,3.1,3.2,3.6,6c0.2,1.3,0.5,3,0.7,4.8
	c3.9-1.5,8.4-2.8,9.4-2.8c1.4,0,35.3-13.8,37.2-15.5c1.9-1.7,6-10.5,9.1-9.5s5.7-10.3,4.3-14.3c-1.4-4.1,2.4-5.5,2.6-6.4
	c0.2-1,1-23.1,1.2-28.4c0.2-5.2,3.3-24.1,3.3-27.4s4.8,1.7,7.4,2.6c1,0.4,3.5-1,6.6-2.8l3.9-7.6l0.3-0.3c1.1-1.5,2.3-3.4,2.9-4.7
	c-2.4-2.5-7.1-7.4-4.5-13.1c1.3-2.9,4.9-5.5,10.6-7.7c1.7-0.7,7.7-2.8,12.4-2.6c0.6-0.2,3.6-1.6,11.3-9.8c-0.1,0-0.2,0-0.2,0
	c-2.8-0.4-2.8-6.5,0.6-6.9s11.6-2.1,13.3-2.1c1.7,0,4.1-5.8,5.8-6.2c1.7-0.4,1.9-10.8,3.7-13.1c1.9-2.2,4.9-7.8,2.8-10.6
	c-2.1-2.8-4.7-4.9-1.7-5.8s-7.5-13.8-31.9,4.1c-24.5,17.9-43.9,45.3-51.2,73.4c-7.3,28-11.9,34-16.8,30s5.9-18.5,6.6-22.4
	c0.7-4,5.3-12.2,4-12.2s-22.1-0.3-25.1,2s-4.3-4.9,4-5.9c8.2-1,18.8-3,20.1-3c1.3,0,3-16.8,3.6-18.1c0.7-1.3,4.3-3.3,4.9-6.3
	c0.7-3,1.4-5.2,1.7-5.7c0.3-0.6,3.2-8,3.7-8.9c0.6-0.8,12-10.1,12-11.2s-1.1-15.5-0.7-17.2s3.2-5.6,3.6-7.2c0.3-1.5,2.6-3.4,3.4-5.2
	c0.9-1.7-1.5-2.4-0.7-3.6s35.1-23.7,42.8-26.1c7.7-2.4,23.4-10.8,27-15.3s11.9-0.7,13.8-2.8c1.9-2.1,14.8-13.8,26.1-20.8
	c0,0-0.9-11.5,0.2-12.2c1-0.7,5.5-5.8,6-7s-1.5-15.3-1-18.6c0.5-3.3,4.8-16.7,20.5-23.4c0,0,3.4-1,3.4-10.3c0-3.7,0.4-4.9,1-5.2
	v-4.7C1374.7,238.6,1355.3,251.4,1335.7,264z"/>
<path class="st1" d="M689.6,446.4c0.8-1,66.9-85.4,94-131.8c-7.5-1.8-22.4-5.6-29.5-8.1c-9.5-3.3-20,10.3-21.5,10.5
	c-1.5,0.3-7.5,0-1-7.5s-17.6-22.2-18.3-43c0,0-4.1-2.2-14.4,0.6c-10.3,2.7-12.2-17.1-12.4-21.9c-0.1-1.4-0.2-4.6-0.4-8.4
	c-31.9,4.2-66.9,6.2-99.8,6.2c-2.6,0-5.2,0-7.8,0c-0.6,43.5-2.9,247,6.6,328c35.9,0.7,73.1,0,111.4-2.4l-8-120.7L689.6,446.4z"/>
<path class="st1" d="M568.4,242.8c-37.3-0.8-75.2-4.3-113.6-10.4l-46.3,324.5C459,564,515,569.2,574.9,570.8
	C565.4,487.3,567.8,286.7,568.4,242.8z"/>
<path class="st1" d="M1149.8,108.6C1149.9,108.6,1149.9,108.6,1149.8,108.6c0.3-0.2,0.5-0.4,0.6-0.6c-0.1-0.1-0.2-0.1-0.3-0.2
	c-0.1-0.1-0.2-0.2-0.3-0.4C1149.9,107.8,1149.9,108.2,1149.8,108.6z"/>
<path class="st1" d="M1164.6,127.4c0,0.8,0,1.6,0,2.1c0.3,1.1,3.9,5.2,15.1,5.2c0.7,0,1.3,0,2,0.1c0-0.1,0.1-0.3,0.1-0.4
	c1.9-6.3,4.8-4.6,4.1-6.3c-0.7-1.7-4.6-6-6.5-5.3s-4.8,6.8-6.3,8.2c-1.4,1.4-4.6,2.1-2.4-4.1c2.2-6.3,6-5.3,5.1-6.8
	c-0.8-1.2-6.2-8.9-10.6-8.8c-0.8,1.7-1.9,3.1-3,4.5C1164.8,119.2,1164.7,124.3,1164.6,127.4z"/>
<path class="st1" d="M1306.3,537.4c0,0.6-0.6,3,2.7,5c0,0,3-4,2.1-5.8S1306.3,536.7,1306.3,537.4z"/>
<path class="st1" d="M1310.5,425.4c0,0-1.1,1.5-1.1,3.7s2.9,0,4.5,0s0-2,0-3.7C1313.8,423.6,1310.5,425.4,1310.5,425.4z"/>
<path class="st1" d="M1376.2,441.2c1.6-3.1-1.9-2.4-3.1-2.1c-1.2,0.2-12.9,7.5-14,9.3s-5,4-7.9,3.1s-4.7,0.1-6.2,0s-1.4,2.4-3.7,2.9
	c-2.4,0.5-2.5-1.6-3.1-2.1s-2-1.7-2.7-3c-0.7-1.2-0.7-3.6-0.7-5.9c0-2.2-4,0-4,0v-0.5c-1,0-0.6,10.2,0.9,12.9
	c1.5,2.6,7.7,2.5,12.5,4s9.7-2,12.1-1s7.5,1,10.2,1s4.4-1,6.9-2.1s-0.7-5-2.1-5s-1.5-2.4-0.9-3.7
	C1370.8,447.5,1374.6,444.3,1376.2,441.2z"/>
<path class="st1" d="M1369.4,401.5c-1.5-2.7-3.5,0-3.5,0c-2.1,2.7,1.8,6.2,1.8,6.2S1370.9,404.2,1369.4,401.5z"/>
<path class="st1" d="M549.3-35.4c0,0,0.8,4.5,3.1,4s4.5-0.5,4.5-2.5S553.9-39,549.3-35.4z"/>
<path class="st1" d="M839.2,136.9c0,0,0.9-3.1,3.6-2.9c2.6,0.2,5.4,0.8,5.4-2.9s1.9-7.1,3.6-8.4c1.7-1.2,6.2-3.4,6.2-6.4
	c0-2.9-1.1-10.7-5-8.7s-10.5,4.2-10.5,6.7s-2.3,2.5-3.3,2c-0.9-0.5-3.6-2-3.6,0.5s-0.6,6.4-1.7,7.1c-1.1,0.8-1.9,1.1-1.9,3.6
	s1.1,4.8,2.8,4.5s2.5,0,2.2,2.6C836.7,137.2,839.2,136.9,839.2,136.9z"/>
<path class="st1" d="M889.9,134.4c1.7,1.6,4.8,3.9,6.4,3.9c1.6,0,1.7-5,2.5-7.9c0.8-2.9-0.3-6.4,0-8.3s-3.3-4.7-5-5.7
	c-1.7-0.9-2.9,1.4-5.3,1.6c-2.3,0.2-1.4,5.9-1.4,5.9c0.1,0.7-1.6,0.9-1.6,3.4C885.6,129.7,888.2,132.9,889.9,134.4z"/>
<path class="st1" d="M863.4,88.8c1.6-1.2,2.6-1.7,5-4c2.3-2.3,3.3-5.4,1.9-6.7c-1.4-1.2-5.7-4.3-5.7-6.2s-3.9-1.2-6.5,0.6
	c-2.6,1.9-6.4,4.5-8.4,5s-2.9-0.6-2.6-2.9c0.3-2.3-1.9-10.1-3.3-11.6c-1.4-1.6-5.6-4.7-9-4.8c-3.4-0.2-21.4-5.7-29.9-14.9
	c0,0-3.1-1.7-5,1.9c-1.9,3.6-4.5,4.5-5.9-0.5s-2-8.5-0.8-8.5s3.3,2.9,5.1,2.9c1.9,0,2.8-3.9,1.4-5.1c-1.4-1.2-5.4-8.1-6.7-8.7
	c-1.2-0.6-4.5,0.2-5,2.3c-0.5,2.2-2.8,5.9-5.6,7.3c0,0,2.9,16.9,2.8,22.2c-0.2,5.3,0.5,8.7,0,11.3c-0.5,2.6-0.3,11.5,0.9,12.4
	s2.2,3.9,1.9,5.7c-0.3,1.9-1.5,3.6-2.8,4.3c-1.3,0.8-4.2,2.8-5.3,5.3s-1.1,2.6-1.1,5.4s1.9,5,4.6,4c2.7-0.9,11.2-5.7,12.6-6.4
	c1.4-0.6,4,0,4.3,1.9s-0.6,3.6,0,5.6s0.8,5.9,3.1,5.9s7.1,0.2,8.1-0.9c0.9-1.1,3.6-2.5,4.8-4.4c1.2-1.8-0.8-6.5,1.4-7.9
	s7.3-3.9,7.3-7.4s-0.3-7.1,1.7-9.9s4.2-4.7,5.3-4c1.1,0.6,0.6,3.7,1.6,4.3c0.9,0.6,3.6,1.1,4,0.6c0.5-0.5,3.9,0.2,3.9,2.2
	s0.8,3.1,4.3,3.1c3.6,0,6,1.6,9.3,1.6C858.5,89.8,861.9,90.1,863.4,88.8z"/>
<path class="st1" d="M816.7,33.7c0.2-2.4-3.2-4.5-5.4-5.6c-2.3-1.1-2-1.4-3.7-3.1s-6.3-2.8-7.2-2s-2,1.1-2,1.1s11.3,11.2,13,11.2
	C813.1,35.2,816.6,36.1,816.7,33.7z"/>
<path class="st1" d="M909.8,87.6c2.7-1.3,4-2.1,2.9-4.8c-1.1-2.7-2.2-5.3-4.7-5.3c-2.4,0-9.1-0.6-8.9,0.8c0.1,1.4,1.9,6.9,1.9,6.9
	S907.1,88.9,909.8,87.6z"/>
<path class="st1" d="M921.4,70.9c0-2.7-9.1-2.1-9.1-2.1c-1.9,0.1-1.1-0.3-1.9,2.1c-0.8,2.4,3.7,5.1,6.5,5.3
	C919.6,76.4,921.4,73.6,921.4,70.9z"/>
<path class="st1" d="M903.5,62.7c0-2-1.3-1.7-3.5-1.7s-0.9,3.4-0.9,3.4C904.3,65,903.5,64.7,903.5,62.7z"/>
<path class="st1" d="M960.3,85.4c1.8,0,5.5-1.8,5.5-2.7c0-1-9.6-1.3-9.6-1.3C955.8,83.4,958.6,85.4,960.3,85.4z"/>
<path class="st1" d="M1014.9,62.8c-2.2-0.3-11.4-1.8-11.4-1.8c-1.4,1.2,0.2,3.5,2.4,3.7c2.2,0.1,2.9,3.1,5.6,3.2
	c2.7,0.2,4-1,4.8-2.1S1017.1,63.1,1014.9,62.8z"/>
<path class="st1" d="M1075.2,106.2c0,2.7-1.6,3.7-1.6,3.7c-1.6,3.7,0.2,6.7,2.6,6.7s2.6-5.8,2.6-6.7
	C1078.9,108.9,1075.2,103.5,1075.2,106.2z"/>
<path class="st1" d="M1097,57.6c0,1.6,0,1.6,0,1.6s-0.3,1.4,4,3.5c4.4,2.1,6.6,2.3,6.1,0.9s-0.5-8-3.8-8S1097,56,1097,57.6z"/>
<path class="st1" d="M1094.9,53.4c0,0,5.1,0.9,4.4-1.4c-0.7-2.3-3.5-3.5-4.4-3.3s-1.6,1-1.6,2.4C1093.3,52.5,1093,53.2,1094.9,53.4z
	"/>
<path class="st1" d="M761.5-36c0-1.8-3.2-1.5-4.3-0.8c-1.2,0.7-2,4.8-2,4.8s2,2.7,2.2,4.5s-1,2.8-1,4.5s3.5,4.2,4.6,1.7
	c1.2-2.5-0.2-5.8,0.5-8.5C762.1-32.5,761.5-34.2,761.5-36z"/>
<path class="st1" d="M1127.6,83.1c-1-0.5-3.1,0-5.3-0.1c-3-0.2-0.8,5-0.8,5c7,0.3,6.3-1.6,6.6-3.6l0,0
	C1128.2,83.6,1128,83.3,1127.6,83.1z"/>
<path class="st2" d="M1258.8,468.5c-0.5-0.6-1-1.1-1.6-1.7s-1.6-1.6-2.1-2.4c2.6-1.9,9.8-4.4,13-4.2c5,0.3,11.1-4.1,21.1-15.4
	c0.1-0.1,0.2-0.2,0.3-0.3c1.3-0.7,5.3-2.4,6.3-2.7c0,0-0.4,0.1-1,0.1v-1.1c-1.8-1.1-3.7-2.6-5.2-2.7c-2.4-0.2-7,2.5-9.9,2.3
	c-7.6,8.3-10.6,9.6-11.3,9.8c-4.7-0.2-10.7,1.9-12.4,2.6c-5.7,2.2-9.3,4.8-10.6,7.7c-2.6,5.8,2.1,10.7,4.5,13.1
	c-0.6,1.3-1.8,3.2-2.9,4.7l-0.3,0.3l-3.9,7.6c5.1-3,11.4-7.4,13.6-7.1c0.4,0,0.8,0.3,1.4,0.8C1260.7,475,1261,471.1,1258.8,468.5z"
	/>
<path id="britishColumbia" style="cursor: pointer;" class="st0" d="M309.5,516.6c2.3-6.8,0.4-15.6-0.7-17.7c-0.3-0.2-0.8-0.4-1.2-0.6c-2.6-1.1-7.5-3.1-9.1-9.9
	c-0.6-2.7-3.6-8.8-6.1-13.7c-4.1-8.2-6.4-13-6.5-16.2c0-0.1,0-0.3,0-0.4c-5.8,0.8-9-7.2-11.1-12.6c-1.1-2.8-2.1-5.7-2.8-7.7
	c-12.6-3.6-12.2-16.1-12.1-21.6c0-0.7,0-1.3,0-1.9c0-1.9-1-3.7-2.2-5.7c-0.9-1.5-1.8-3.2-2.4-5.1c-2.4-0.7-4.8-3.2-9-8.8
	c-2.1-2.8-5.5-7.8-6.4-10.1c-1-2.3-0.6-4.2-0.1-5.3c0.4-0.9,1-1.6,1.6-2.2c-0.5-0.8-1.1-1.6-1.6-2.3l-1.5-2l0.7-2.4l53.1-178.9
	c-38.6-13.1-77.4-28.7-116-46.6c-59.3-27.3-108.8-56.1-143.6-78c-0.8,2.5-1.3,5.4-0.8,8.2c1.1,6.6,3,23.6,3.3,25.5
	c0.4,1.8-1.8,7,8.9,5.5s12.2-4.4,15.9-4.4s10-3.7,12.9,0c3,3.7,3.7,10,2.6,14.4s4.1,13.7,5.2,19.2s1.5,55.4,1.5,55.4
	s-4.4,4.4-2.6,6.3c1.8,1.8,3.3,8.9,2.6,13.7c-0.7,4.8-1,6.7,5.6,8.6c0,0,6.4,13.1,8.6,17.2c2.1,4,6.9,4.3,0,15s0.9,1.1,0.9,3.7
	c0,2.6-8.1,11.5-8.9,12.3s0.6,3.1,1.4,2.8s4.9-6.1,6.5-6.1c1.5,0,5.2,0,3.7,2.3c-1.4,2.3-5.4,4.8-6,6.3s2.2,0.9,2,3.7
	c-0.2,2.8-1.4,2.8-4.5,0s-5.8-0.9-6.9,0.3c-1.1,1.2-4.9,6.5-7.8,6.6c-2.9,0.2-1.1,6.5-0.2,7.4s5.5,1.1,6.6,2s-0.8,3.4-3.5,4
	c-2.8,0.6-4,5.1-4,6.1c0,1.1,1.2,4.8,1.7,5.8s0.8,5.2,0.4,5.9c-0.3,0.6,0.3,4.1,0.3,4.7s0.8,1.6,2.4,0.4s2.9-5.2,4.3-4.9
	c1.4,0.3,1.6,1.4,2.3,1.8c0.7,0.4,4.5-1.9,4.9-4.3s2.4-2.2,3-1.8c0.6,0.4,0.1,1.6,0.1,2.6c0,1.1,0.7,1.9-0.1,2.9
	c-0.9,1.1-1.7,0.2-2.4,1.7c-0.7,1.5-0.6,3.1-0.6,4.1s0.4,3.6,1.3,4.3c0.9,0.7,1.6,2.2,3.2,1.7c1.6-0.4,2.9-0.6,3.8,0.1
	s1,3.2-0.3,3.2s-5.1,0-6.1-1.2s-3.1-0.9-3.3-2.3c-0.2-1.4-1.6-1.6-2.5-1.2s-1,0.4-1.1,1.2c-0.1,0.9-0.2,6.8-0.2,6.8s1.5,0,1.5,0.4
	s-0.2,8.9-0.2,8.9s4,1.1,4.2,3.9c0.2,2.9-8.1,9.6-8.1,9.6s-1.3,2.9,2.1,3s3,1.2,3,1.9c0,0.7,0.7,5.4,0.7,6c-0.1,0.6,0.6,1.6,1.2,1.5
	c0.7-0.1,3.5-0.6,3.3-1.6s2.1-1.2,3.3-2c1.2-0.7,10.7-7.8,13-7.6c2.3,0.2,2.7-1.9,4.1-1.5s0.5,4.2-0.4,4.3c-0.9,0.2-3.6,2.6-5.1,2.9
	s-2.7,1.2-3.3,2c-0.6,0.8-2.4,0.9-2.2,2.2c0.2,1.2,4.2,4.1,5.1,3.9s2.2,0.7,2.1,1.8c-0.1,1.2-0.6,3.3-1.9,3.6
	c-1.3,0.3-1.3,2.1-2.4,1.2c-1.1-0.8-0.3-4-1.3-4.2s-7.9-1.5-9.1-1c-1.2,0.6-2.9,1.5-2.9,2.9s-0.8,2-1.9,2.1s-3.4,1.2-4.1,1.5
	s-0.6,0.8-1,1.9c-0.4,1-0.3,2.3-0.8,2.3s0,1.4-0.7,1.3c-0.7,0-1.2,0.2-1.2,0.9c0,0.7-0.2,2.1,0.4,2.1s3.4,0.5,4.3-0.8
	c1-1.3-0.1-1.9,0.8-1.9s1.5-0.6,3-1.1c1.4-0.4,2.5-2.1,3.2-0.3c0.7,1.8,1,1.7,1.4,2.3c0.4,0.6,2.2,0.3,2.5,0.6
	c0.3,0.4,0.5,2.3-0.6,2.7c-1.1,0.4-2.6,1-3.4,1.8c-0.7,0.8-1.9,1.4-3.3,1.5s-2.1,0.1-2.8,0.5c-0.6,0.4-4.6,1.1-5.3,1.4
	c-0.7,0.2-1.9,2.1-2,3.2s-0.3,2.7,0.2,3.5s6.5,2.5,8.7,3.1c2.1,0.6,6,1.9,5.4,3s-0.5,3.3-4.4,1.9s-4.9-3.4-6.2-3.2
	c-1.3,0.1-3,0.1-2.2,2.2c0.7,2.1,3.9,4.2,5.6,4.3c1.7,0.2,10.7,0,11.2,0s1.8,1.6,2.3,2.1s2,4.7,2.5,6c0.5,1.2,7.1,2.4,8.2-0.7
	c1.2-3.1,2.1-5.3,3.3-5.3c1.2,0,2.4,0.1,2.6,1.5s2,1.5,1.1,2.7c-0.9,1.1-5.9,6-7.1,6.2s-4.3,0.8-6.2,0.8c-1.9,0-2.2,1.3-2,3
	c0.3,1.7,3.8,7,7.5,2.9s3.9,2.2,5,4s6.1-4.5,8.7-5.2c2.6-0.6,4.6,1.4,2.9,3.1s-6.1,4.6-5.8,6.4c0.3,1.8,3.4,2.5,5.9,0.6
	c2.5-1.9,4.6-2.4,4.8-0.6s1.2,3.4-0.6,4.2c-1.9,0.8-1.7,1.6-4.5,1.6s-6.6-0.7-7.2,0s0.1,5.3,0.4,6.3c0.4,1,3.2,9.7,7.7,10.1
	c4.5,0.4,8.1-2.4,9.2-4.3c1.1-1.9,2.8-1.4,2.8,1s1.4,10.5-3.2,9.8c-4.6-0.7-2.8-3.3-5.9-2.8c-3.1,0.5-1.2,4.2-0.4,5.3
	c0.8,1.1,6.2,8.6,9.1,6.9c2.8-1.8,4.9-3.1,6.8-2.7c1.9,0.4,3.6,1.2,0,4.1c-3.6,2.8-4.2,3.7-4.3,5.1s0.1,6.9,0.1,8
	c0,0.6,64.7,25.7,169.7,47.3C309.7,535.2,306.3,526.3,309.5,516.6z"/>
<path class="st0" d="M67.6,324.5l2.4-1.3c0.9-0.7-2.4-5.4-2.4-5.4s-0.9-3.4-1.3-6.6s-3.4-3.6-4.5-2.4c-1.1,1.1,0.6,7.1,1.5,9.6
	C64.2,320.8,65.9,324.5,67.6,324.5z"/>
<path class="st0" d="M67.9,294.7c-1-0.7-1.8,1.4-3.7,1.5c-1.9,0.1-2.2,1.3-2.2,3.3c0,2.1,5.8,4.2,6.6,3.8c0.9-0.5,0.3-1.5,1.1-4.3
	C70.5,296.1,68.9,295.3,67.9,294.7z"/>
<path class="st0" d="M73.6,310.8c0-0.8-0.8-1.8-0.9-2.5c-0.1-0.8-2.6-1.8-2.6-1.8c-0.7-0.3-0.6,1.2-0.6,2.8c0,1.5,0.7,2.8,1.1,3.7
	c0.4,0.9,0.5,2.1,1.5,3.4c1,1.4,0,2.5,1.8,3c1.8,0.4,1.1-1.2,0.5-1.7s-0.4-1.5-0.4-2.1C74,315.1,73.6,311.6,73.6,310.8z"/>
<path class="st0" d="M76.8,338.9c1.7,0.5,1.4,2.3,0.3,2.5s-1,2.9,0.1,3.7c1.1,0.8,0.5,0.9,0.5,2.8s0.7,2.9,2.1,3.2
	c1.4,0.3,0.5,1.5,1,2.9c0.5,1.3,2.2-1.2,3.6-1.8c1.3-0.6,0.1-12.7,0-14s-1.3-1.7-1.3-3.8c0-2-1.2-2.3-1.4-1c-0.1,1.3-3.1-0.3-5.1,1
	c0,0-0.2,1.1-0.9,1.1C75.2,335.6,75.2,338.5,76.8,338.9z"/>
<path class="st0" d="M71,343.6L71,343.6C71.1,343.6,71,343.6,71,343.6z"/>
<path class="st0" d="M72.3,351c0.6,1.2,1.6,1,2,0.2s0.2-2.5-0.3-3.1s-1-2.3-1-3.2c0-0.8-1.7-1.1-1.9-1.2c-0.1,0.2-0.9,1.4-0.9,1.4
	s0.3,0.8,0.3,1.7c0,0.8,1.2,0.7,0.7,1.6C70.7,349.2,71.7,349.8,72.3,351z"/>
<path class="st0" d="M78.1,327.8c-0.8-0.3-0.6-1.9-0.9-2s-0.5-0.4-1.1-0.3c0,0-0.4,1.8-0.4,2.2c0,0.4,0.1,1.5,0.8,1.5
	c0.7,0,0.6,0.8,0.8,1c0.2,0.3,1.4,0.3,1.4-0.6C78.6,328.8,78.9,328.2,78.1,327.8z"/>
<path class="st0" d="M47.3,285.7c-0.8-0.4-2.9-0.8-4.2-0.6c-1.2,0.2-6.1,8-7.3,9.4c-1.1,1.4-2.2-1.1-3.3-1.9
	c-1.1-0.8-2.4-2.9-2.4-3.6s2-1.1,4-1.1s3.2-2.5,4-3.3s-2.3-2.1-4.3-2.1c-2.1,0-1.7-2.4-3.5-5.1c-1.7-2.7-4.7-2.3-5.2-1
	c-0.5,1.4-5.5,6.5-5.8,6.9l1.7,1.8c1.4,0.6,1.5,1.6,1.2,2.8c-0.3,1.2-1.6,1.3-2.9,1.4s-0.7,2.9-0.7,3.9s3.7,1.6,4.5,2s0.5,1.8-0.5,2
	s-3.2,0.3-3.2,1.6c0,1.4,1.5,4.1,2.6,4.4s10.2,0,11,0s2.1-2,2.8-2.2s3.6-2.8,4-3.3c0.3-0.5,0.9-2.7,1.2-2.8c0.3-0.1,1.9-2.9,2.2-3.3
	s2.9-2.4,3.6-2.8C47.5,288.5,48.1,286.1,47.3,285.7z"/>
<path class="st0" d="M32.9,339.8c0.5-1.3-1.3-3.3-0.7-3.3c0.5,0,0.5-2.4,0.8-3.5c0.3-1,0.6-0.9,1.3-1.5c0.6-0.5-1.3-2.2-2-2.4
	c-0.7-0.2-2-2.7-2.1-4.2s-0.4-4,1.2-4.2s3.2-1.4,3.5-2.3c0.2-0.9-2.9-2.3-4.6-2.8c-1.7-0.5-0.3-2.9,0.9-4c1.3-1,2.2-1.2,3.3-2.4
	c1.2-1.3-2.7-2.5-3.6-2.5c-0.8,0-10.9-0.1-10.9-0.1c-0.9,0.2,0.3,1.4,0.3,3c0,1.7,1,3.1,2.6,5s-0.4,4.2-0.5,7.2s1.4,2.6,2,3.9
	s1.6,1,2.1,3.3s-0.3,2.5,0.1,4.3s1.2,1.7,1.2,4.1s1.4,3.8,2.8,4C32.1,341.7,32.4,341.1,32.9,339.8z"/>
<path class="st0" d="M33.8,345.1c-1.3,0-1.8-0.3-1.8,0.7c0,0.9,0.2,1.6,0.5,1.9s0.1,1.4,1.1,1h0.2c0.3-0.6,0.9-1.3,1.3-2
	C35.4,346,35.1,345.1,33.8,345.1z"/>
<path class="st0" d="M115.8,470.4c-0.6-1.9-1.5-5.7-0.6-6c0.9-0.2,3.4-1.7,3.4-3.4c0-1.7-5.3-5.5-5.3-8.1s-1.1-11.3-1.1-11.3
	l-41.1-34.2c0,0-1.3,0.6-3.4,1.3c-2.1,0.6-3.2,4.7-3.2,6.6s8.3,0.9,12.6,2.6c4.3,1.7-1.1,5.7-5.1,5.5s-3.2,4.3-3.2,7
	s10,0.6,12.6,1.3c2.6,0.6,1.7,3.6-1.9,3.6s-2.6,6.8-1.3,7.7c1.3,0.9,5.7,1.1,6,3.6c0.2,2.6,2.3,4.3,5.1,4.5c2.8,0.2,6.8,6,2.3,5.7
	c-4.5-0.2-5.7,3.8-4.9,5.7c0.9,1.9,2.6,2.6,4.7,3.6c2.1,1.1-0.2,1.5-0.2,3.8s5.7,0.4,5.7,3s2.3,6,2.3,6.6s6.4,0.4,8.1,2.6
	c1.7,2.1-5.3,5.3-4.9,7s9.4,8.5,12.6,12.6c3.2,4,9.4,1.5,11.3,0c1.9-1.5,2.8-5.7,3.8-6.2c1.1-0.4,0-9.1,0-11.7
	C130,481.2,116.4,472.3,115.8,470.4z"/>
<path id="alberta" style="cursor: pointer;" class="st0" d="M408.5,223.7c-35.4-7.5-71.1-17.2-106.9-29L249.3,371c4.1,6,3.5,8.3,3.2,9.5c-0.3,1.4-1.1,2.4-1.9,3.1
	c1.9,3,5,7.3,7,9.6c1.3-0.4,2.6-0.2,3.9,0.4c2.9,1.5,3.1,4.7,3.2,6.6c0,0.8,0.9,2.3,1.7,3.6c1.6,2.8,3.5,6.2,3.5,10.7
	c0,0.7,0,1.4,0,2.2c-0.3,8.1,0.7,11.2,6.7,12.1l3.1,0.5l0.9,3c2,6.4,4.6,13,6.2,15.8c1.9,0,3.6,0.5,5.1,1.6c1.7,1.2,3.7,3.7,4,8.5
	c0.3,1.8,3.4,8.1,5.5,12.3c3.1,6.2,6,12,6.9,15.8c0.4,1.7,1,2.1,3.2,3c1.7,0.7,3.8,1.6,5.3,3.6c3.1,4.2,5.6,17.1,2.3,27.1
	c-2.3,6.8,1.1,12.7,3.5,15.2c2.2,2.2,3.4,5.1,3.9,8c22.4,4.4,46.6,8.6,72.2,12.4L445,230.9C432.8,228.6,420.7,226.3,408.5,223.7z"/>
<path id="ontario" style="cursor: pointer;" class="st0" d="M1149.4,589.6c-2.6,0.7-5.9,1.6-9.8,1.8c-0.3,0-0.5,0-0.6,0c-2.1,4.9-5.8,8.4-17.8,10.7
	c-10.3,1.9-15.7,1.8-18.4-3.9c-0.3-0.1-0.9-0.1-1.8-0.2c-9.4-0.3-12.9-1.9-17.9-4.5c-1.3-0.7-2.6-1.4-4.3-2.1
	c-2.2-1-8.4,0.1-12.6,0.9c-3.3,0.6-6.4,1.1-9.1,1.2c-4.7,0.1-7.8-1.4-9.3-4.4c-1.3-2.6-9.2-9-13.5-12.4c-2.3-1.9-4.4-3.5-5.8-4.8
	c-5.4-4.9-5.5-14-5.4-17.2l-31.2-99.2c-6-1.6-13.4-4.4-14.8-4.8c-2-0.7-5.4-8-6-11.1c-0.7-3-5.1-10.7-28.2-10c0,0,4.7-4.9,4.1-6.3
	c-0.5-1.4-12.9-10.8-16.3-17c-3.4-6.1-2.9-23.9-11.6-34.4s3-21.3-1.3-25.6c-4.3-4.3-34.1-1-50.1,5.3c0,0-3.8,3.5-4.3-0.8
	s1-5.5-8.5-7.8s-29.1-5-36.3-9.8c-7.3-4.8-18.5-18.8-21.8-18.8c-0.6,0-1.2,0-1.9,0.1c-24.3,43.7-86.6,123.9-96.4,136.5l7.1,106.7
	c2.2,1.2,4.6,3.9,5.9,7.1c1.8,4.2,7.7,11.7,17,8.2s5.1,4.2,28.3,4.4c0,0,4.5,6.4,6,6.4s5.5-2.7,10.5,0c4.9,2.7,11,5.3,15.2,0
	s7.7,4.4,11.7,4.2s8-3.3,12.6-1.1s14.8-3.1,14.8-5.3s-0.7-13.3,2.7-13.7c3.5-0.4,1.8,4.9,3.3,4.9s3.8-2.7,3.8-12.1s2.6-4.4,2.9-3.5
	c0.4,0.9-0.5,7.5,2.4,7.9s2.9-4.2,2-5.9c-0.9-1.6-3.5-5.5-2.4-6.6s6.2-3.8,16.1,1.8c9.9,5.7,13.7-2.2,17.2-2s5.9-3.5,11.2,8.8
	s9.1,12.6,11.7,12.6c2.6,0,9.3-0.4,10.4-1.6c1.1-1.3,6.4-2.6,6.6,0.2c0.2,2.7-0.5,3.7,0,6.4s0.4,5.9,2.2,5.9s2.6,0.9,4,3.3
	c1.5,2.4,1.3,5.8,1.3,7.7s1.8,5.7,4,6c2.2,0.4,0.7-2.4,3.3-2.4s3.5,2.6,1.5,3.7c-2,1.1-3.7,2.4-3.7,4.4s-1.1,5.9,0,6.2
	c1.1,0.4,5.7,0,6.9,0c1.3,0,1.5-2.9,4.4-1.6c2.9,1.3,1.8,3.5,4,4.6s23.4,0.7,25.4,0s12.6-4,19-4s16.5,1.1,18.5,1.1s-1.1-4.2,3.8-3.5
	s0.5,2.4,4.4,4.6c3.8,2.2,16.8,11.5,16.8,11.5s-1.1,4.9,0,5.1c1.1,0.2,3.5,5.1,8.6,4s4.2,3.3,4.2,3.3s-4.4,0.7-6.2,1.6
	c-1.8,0.9-3.1,3.5-0.7,4.4s2.7,5.7,0.2,5.9c-2.6,0.2-7.5-0.4-11-2.7c-3.5-2.4-4.2,0-5.3-0.2s-10.8-11.5-12.6-12.1
	c-1.8-0.5-4.6-0.7-4.6,0.2s0.7,6,6.4,10.4c0,0,1.3,13.3,0.2,14.8s-3.1,3.8-3.8,4.6c-0.7,0.7-1.3,5.7,0.7,8.8s2.4,3.7,2.6,5.9
	c0.2,2.2-0.7,5.5-1.1,6.8c-0.4,1.3-0.2,4.4-0.4,5.7s-7.5,12.4-9,13.3s-0.5,9.7-1.1,11.7c-0.5,2-9.1,12.6-10.1,16.1
	c-0.9,3.5-1.1,7.9,0,9.1c1.1,1.3,4.6,1.3,6.4,0c1.8-1.3,5.3-2.7,7.1-3.3c1.8-0.5,4.6-7.7,7.3-9.3s6.8-3.1,7.3-5.5s0-6.8,3.7-8.6
	s3.8-6.6,6.8-6.6c2.9,0,6-0.9,7.9,1.8c1.8,2.7,5.3,3.1,6.4,1.8s7.5-2.6,6.8-7.5s17.9-11.5,23.8-12.4s-0.7-6.2-0.9-8.2
	s-2.4-3.7-4-2.9c-1.6,0.7-3.1,5.1-10.1,0.9c-6.9-4.2-2.9-4.9-2-6.4s1.1-8.4,1.6-9.7s6-2,8.4-2s10.8-5.9,13.2-7.9
	c2.4-2,8.6-2.9,10.1-3.5s4.9-0.7,7.1,0.2s7.5-0.4,11.6-2.5s3.2-7.3,1.9-10.7c-1.3-3.4,15.1-20,18.1-23.2s8.5-14.5,12.3-17.6
	c3.8-3,7.4-5,9.5-5.7c1-0.3,2-0.1,3.2,0c-0.3-1.8-0.5-3.6-0.8-5.1C1150.7,589.3,1150,589.5,1149.4,589.6z"/>
<path class="st0" d="M998.4,624.4c3.1-2.3-0.7-5.1-2.1-5.8c-1.5-0.7-5.4-3.8-9.9-0.8s-6.1,3.3-9.4,3.5c-3.3,0.2-14.8,1-14.8,1
	s-1.5-0.7-1.6,1.8c-0.2,2.5,3,3.3,4.3,3.8s22.6,0.8,24.4,0S995.2,626.7,998.4,624.4z"/>
<path class="st0" d="M936.4,402.1c-0.2,1.5,2,1.3,3.9,3.3c2,2,4.6,2.8,15.3,2.3s5.7-3.4,4.8-5.4c-0.8-2-6.2-7-7-8.3
	c-0.9-1.3-6.1-0.7-8.1,0s-7.7,6.1-7.7,6.1S936.6,400.6,936.4,402.1z"/>
<path class="st3" d="M991.1,425.3c0.8,0,3.5-1.1,4.4-2.3c0.9-1.2-0.8-2.3-1.5-3.2c-0.8-0.9-2.9,0.6-2.9,0.6s-2,0.9-2,3.5
	S990.4,425.3,991.1,425.3z"/>
<path class="st0" d="M1328.6,371.9c3-0.7,13.7-4.1,13.5-7.4s-4.8-2.8-9.1-3c-4.3-0.2-10.2-0.2-25.6,1.3s-21.5,9.1-21.5,9.1
	c-1.4,1.4-0.7,1.5,2.4,2.2c3,0.7,9.6-1.7,13.9-1.5s10.9,3.5,14.3,3.5S1325.5,372.6,1328.6,371.9z"/>
<path class="st0" d="M959.2,289.2c-4-3.2-4.6,0.9-7.6,7.6c-3,6.6-5.5,6.5-4.7,9.5s5.7,4.4,6.7,2.7c0.9-1.7,3-4.2,1.9-9.1
	C955.4,299.9,963.2,292.5,959.2,289.2z"/>
<path class="st0" d="M943.3,295.1c-1.7,3.6-0.4,5.9,1.7,5.7c2.1-0.2,2.6-5.1,1.7-6.6C945.9,292.7,943.3,295.1,943.3,295.1z"/>
<path class="st0" d="M965.9,291.1c0-1.9-1.9-1.7-1.9-1.7s0,0-1.6,0s1,4.2,1.6,5.1C964.5,295.5,965.9,293,965.9,291.1z"/>
<g id="ontarioPin" style="cursor: pointer;">
	<g>
		<path class="st4" d="M873.9,424.9c0,12.7-23,45.9-23,45.9s-23-33.2-23-45.9c0-12.7,10.3-23,23-23
			C863.6,401.9,873.9,412.2,873.9,424.9z"/>
		<path class="st5" d="M869.2,425.2c0,10.1-8.2,18.2-18.2,18.2c-10.1,0-18.2-8.2-18.2-18.2c0-10.1,8.2-18.2,18.2-18.2
			C861,406.9,869.2,415.1,869.2,425.2z"/>
	</g>
	<g>
		<path class="st6" d="M863.3,429.9C863.4,429.9,863.4,429.9,863.3,429.9C863.4,429.9,863.4,429.9,863.3,429.9L863.3,429.9
			 M859.5,430L859.5,430L859.5,430L859.5,430 M861.9,431.2l-2.4-1.2l0,0l3.9-0.1C863.2,430,861.9,431.2,861.9,431.2"/>
		<path class="st6" d="M859.5,430L859.5,430L859.5,430L859.5,430 M860.3,433.8l-0.8-3.8l0,0l1.8,2.1
			C861.2,432.1,860.3,433.7,860.3,433.8 M860.3,433.8L860.3,433.8L860.3,433.8L860.3,433.8"/>
		<polyline class="st7" points="859.5,430 859.5,430 859.5,430 859.5,430 859.5,430 		"/>
		<g>
			<path class="st8" d="M852.9,424.7c0.6-0.3,3.9-1.6,8.7-1.6c1.2,0,2.5,0.1,3.8,0.3c0,0-0.1,0.4-0.4,0.9c-1.8-0.2-3.5-0.3-5-0.3
				C856.3,424,853.5,424.6,852.9,424.7"/>
			<path class="st9" d="M854.5,437.3c-2.6-6.2-1.9-11.6-1.7-12.4c0,0.9,0.2,6,2.6,11.8C854.8,437.1,854.5,437.3,854.5,437.3"/>
			<path class="st10" d="M852.3,437.6c0,0-0.4-0.1-0.9-0.3c0.9-6.3-0.2-11.2-0.4-12.1C851.3,425.9,853.3,430.9,852.3,437.6"/>
			<path class="st11" d="M845.7,431.7L845.7,431.7L845.7,431.7L845.7,431.7 M845.8,435.6c-0.1-0.1-1.3-1.5-1.3-1.5l1.2-2.4l0,0
				L845.8,435.6 M845.8,435.6L845.8,435.6L845.8,435.6L845.8,435.6"/>
			<path class="st12" d="M838.9,427.5c-0.4-0.5-0.6-0.8-0.6-0.8c3.8-1.6,7.2-1.9,9.6-1.9c1.5,0,2.5,0.1,2.9,0.2
				C849.9,425,844.8,425.2,838.9,427.5"/>
			<path class="st13" d="M845.7,431.7L845.7,431.7L845.7,431.7L845.7,431.7 M843.6,433.4c0,0-1.6-0.9-1.7-0.9l3.8-0.8l0,0
				L843.6,433.4"/>
			<polyline class="st14" points="845.7,431.7 845.7,431.7 845.7,431.7 845.7,431.7 845.7,431.7 			"/>
			<path class="st15" d="M841.9,432.5L841.9,432.5L841.9,432.5L841.9,432.5"/>
			<path class="st6" d="M840.1,418c0.1-0.1,1.5-1.3,1.5-1.3l2.4,1.2l0,0L840.1,418 M840.1,418L840.1,418L840.1,418L840.1,418"/>
			<path class="st16" d="M850.7,423c0-0.2,0-0.5,0-1l0,0l0,0l0,0l0,0c-0.1-1.9-0.6-6.1-2.5-10.8c0.5-0.4,0.8-0.6,0.8-0.6
				C851.6,416.8,850.8,422.2,850.7,423"/>
			<path class="st11" d="M844,417.9L844,417.9l-1.8-2.1c0,0,0.9-1.6,0.9-1.7L844,417.9 M844,417.9L844,417.9L844,417.9L844,417.9"/>
			<polyline class="st17" points="844,417.9 844,417.9 844,417.9 844,417.9 844,417.9 			"/>
			<path class="st18" d="M843.2,414.1c2.4-2,4.7-3.6,4.7-3.6c2.8,6.8,2.8,12.6,2.8,12.6l-6.7-5.2L843.2,414.1"/>
			<path class="st9" d="M841.9,424.8c-1.2,0-2.5-0.1-3.8-0.3c0,0,0.1-0.4,0.4-0.9c1.8,0.2,3.5,0.3,5,0.3c3.8,0,6.5-0.6,7.1-0.7
				C850,423.4,846.6,424.8,841.9,424.8"/>
			<g>
				<path class="st19" d="M840.1,418c-1.4,2.8-2.3,5.4-2.3,5.4c7.3,1.1,12.9-0.3,12.9-0.3l-6.7-5.2L840.1,418"/>
			</g>
			<path class="st19" d="M863.4,429.9c1.4-2.8,2.3-5.4,2.3-5.4c-7.3-1.1-12.9,0.3-12.9,0.3l6.7,5.2L863.4,429.9"/>
			<path class="st18" d="M860.3,433.8c-2.4,2-4.7,3.6-4.7,3.6c-2.8-6.8-2.8-12.6-2.8-12.6l6.7,5.2L860.3,433.8"/>
			<path class="st18" d="M845.8,435.6c2.8,1.4,5.4,2.3,5.4,2.3c1.1-7.3-0.3-12.9-0.3-12.9l-5.2,6.7L845.8,435.6"/>
			<path class="st20" d="M841.9,432.5c-2-2.4-3.6-4.7-3.6-4.7c6.8-2.8,12.6-2.8,12.6-2.8l-5.2,6.7L841.9,432.5"/>
		</g>
	</g>
</g>
<g id="quebecPin" style="cursor: pointer;">
	<g>
		<path class="st4" d="M1138.3,342c0,12.7-23,45.9-23,45.9s-23-33.2-23-45.9c0-12.7,10.3-23,23-23S1138.3,329.3,1138.3,342z"/>
		<path class="st5" d="M1133.6,342.3c0,10.1-8.2,18.2-18.2,18.2c-10.1,0-18.2-8.2-18.2-18.2c0-10.1,8.2-18.2,18.2-18.2
			C1125.4,324,1133.6,332.2,1133.6,342.3z"/>
	</g>
	<g>
		<path class="st6" d="M1127.7,347L1127.7,347L1127.7,347L1127.7,347 M1123.8,347.1L1123.8,347.1L1123.8,347.1L1123.8,347.1
			 M1126.3,348.3l-2.4-1.2l0,0l3.9-0.1C1127.6,347.1,1126.3,348.3,1126.3,348.3"/>
		<path class="st6" d="M1123.8,347.1L1123.8,347.1L1123.8,347.1L1123.8,347.1 M1124.7,350.9l-0.8-3.8l0,0l1.8,2.1
			C1125.6,349.2,1124.7,350.8,1124.7,350.9 M1124.7,350.9L1124.7,350.9L1124.7,350.9L1124.7,350.9"/>
		<polyline class="st7" points="1123.9,347.1 1123.8,347.1 1123.8,347.1 1123.9,347.1 1123.9,347.1 		"/>
		<g>
			<path class="st8" d="M1117.3,341.8c0.6-0.3,3.9-1.6,8.7-1.6c1.2,0,2.5,0.1,3.8,0.3c0,0-0.1,0.4-0.4,0.9c-1.8-0.2-3.5-0.3-5-0.3
				C1120.6,341.1,1117.9,341.7,1117.3,341.8"/>
			<path class="st9" d="M1118.9,354.4c-2.6-6.2-1.9-11.6-1.7-12.4c0,0.9,0.2,6,2.6,11.8C1119.2,354.2,1118.9,354.4,1118.9,354.4"/>
			<path class="st10" d="M1116.7,354.7c0,0-0.4-0.1-0.9-0.3c0.9-6.3-0.2-11.2-0.4-12.1C1115.7,343,1117.7,348,1116.7,354.7"/>
			<path class="st11" d="M1110.1,348.8L1110.1,348.8L1110.1,348.8L1110.1,348.8 M1110.2,352.7c-0.1-0.1-1.3-1.5-1.3-1.5l1.2-2.4l0,0
				L1110.2,352.7 M1110.2,352.7L1110.2,352.7L1110.2,352.7L1110.2,352.7"/>
			<path class="st12" d="M1103.3,344.6c-0.4-0.5-0.6-0.8-0.6-0.8c3.8-1.6,7.2-1.9,9.6-1.9c1.5,0,2.5,0.1,2.9,0.2
				C1114.2,342.1,1109.2,342.3,1103.3,344.6"/>
			<path class="st13" d="M1110.1,348.8L1110.1,348.8L1110.1,348.8L1110.1,348.8 M1108,350.5c0,0-1.6-0.9-1.7-0.9l3.8-0.8l0,0
				L1108,350.5"/>
			<polyline class="st14" points="1110.1,348.8 1110.1,348.8 1110.1,348.8 1110.1,348.8 1110.1,348.8 			"/>
			<path class="st15" d="M1106.3,349.6L1106.3,349.6L1106.3,349.6L1106.3,349.6"/>
			<path class="st6" d="M1104.5,335.1c0.1-0.1,1.5-1.3,1.5-1.3l2.4,1.2l0,0L1104.5,335.1 M1104.5,335.1L1104.5,335.1L1104.5,335.1
				L1104.5,335.1"/>
			<path class="st16" d="M1115.1,340.1c0-0.2,0-0.5,0-1l0,0l0,0l0,0l0,0c-0.1-1.9-0.6-6.1-2.5-10.8c0.5-0.4,0.8-0.6,0.8-0.6
				C1116,333.9,1115.2,339.3,1115.1,340.1"/>
			<path class="st11" d="M1108.4,335L1108.4,335l-1.8-2.1c0,0,0.9-1.6,0.9-1.7L1108.4,335 M1108.4,335L1108.4,335L1108.4,335
				L1108.4,335"/>
			<polyline class="st17" points="1108.4,335 1108.4,335 1108.4,335 1108.4,335 1108.4,335 			"/>
			<path class="st18" d="M1107.5,331.2c2.4-2,4.7-3.6,4.7-3.6c2.8,6.8,2.8,12.6,2.8,12.6l-6.7-5.2L1107.5,331.2"/>
			<path class="st9" d="M1106.3,341.9c-1.2,0-2.5-0.1-3.8-0.3c0,0,0.1-0.4,0.4-0.9c1.8,0.2,3.5,0.3,5,0.3c3.8,0,6.5-0.6,7.1-0.7
				C1114.4,340.5,1111,341.9,1106.3,341.9"/>
			<g>
				<path class="st19" d="M1104.5,335.1c-1.4,2.8-2.3,5.4-2.3,5.4c7.3,1.1,12.9-0.3,12.9-0.3l-6.7-5.2L1104.5,335.1"/>
			</g>
			<path class="st19" d="M1127.7,347c1.4-2.8,2.3-5.4,2.3-5.4c-7.3-1.1-12.9,0.3-12.9,0.3l6.7,5.2L1127.7,347"/>
			<path class="st18" d="M1124.7,350.9c-2.4,2-4.7,3.6-4.7,3.6c-2.8-6.8-2.8-12.6-2.8-12.6l6.7,5.2L1124.7,350.9"/>
			<path class="st18" d="M1110.2,352.7c2.8,1.4,5.4,2.3,5.4,2.3c1.1-7.3-0.3-12.9-0.3-12.9l-5.2,6.7L1110.2,352.7"/>
			<path class="st20" d="M1106.3,349.6c-2-2.4-3.6-4.7-3.6-4.7c6.8-2.8,12.6-2.8,12.6-2.8l-5.2,6.7L1106.3,349.6"/>
		</g>
	</g>
</g>
<g id="albertaPin" style="cursor: pointer;">
	<g>
		<path class="st4" d="M368.2,294.7c0,12.7-23,45.9-23,45.9s-23-33.2-23-45.9c0-12.7,10.3-23,23-23
			C357.9,271.8,368.2,282.1,368.2,294.7z"/>
		<path class="st5" d="M363.5,295.1c0,10.1-8.2,18.2-18.2,18.2c-10.1,0-18.2-8.2-18.2-18.2c0-10.1,8.2-18.2,18.2-18.2
			C355.3,276.8,363.5,285,363.5,295.1z"/>
	</g>
	<g>
		<path class="st6" d="M357.6,299.8C357.6,299.7,357.6,299.7,357.6,299.8C357.6,299.7,357.6,299.7,357.6,299.8L357.6,299.8
			 M353.7,299.9L353.7,299.9L353.7,299.9L353.7,299.9 M356.2,301.1l-2.4-1.2l0,0l3.9-0.1C357.5,299.8,356.2,301.1,356.2,301.1"/>
		<path class="st6" d="M353.7,299.9L353.7,299.9L353.7,299.9L353.7,299.9 M354.6,303.7l-0.8-3.8l0,0l1.8,2.1
			C355.5,301.9,354.6,303.5,354.6,303.7 M354.6,303.7L354.6,303.7L354.6,303.7L354.6,303.7"/>
		<polyline class="st7" points="353.7,299.9 353.7,299.9 353.7,299.9 353.7,299.9 353.7,299.9 		"/>
		<g>
			<path class="st8" d="M347.2,294.6c0.6-0.3,3.9-1.6,8.7-1.6c1.2,0,2.5,0.1,3.8,0.3c0,0-0.1,0.4-0.4,0.9c-1.8-0.2-3.5-0.3-5-0.3
				C350.5,293.9,347.8,294.4,347.2,294.6"/>
			<path class="st9" d="M348.8,307.2c-2.6-6.2-1.9-11.6-1.7-12.4c0,0.9,0.2,6,2.6,11.8C349.1,307,348.8,307.2,348.8,307.2"/>
			<path class="st10" d="M346.5,307.4c0,0-0.4-0.1-0.9-0.3c0.9-6.3-0.2-11.2-0.4-12.1C345.5,295.7,347.6,300.7,346.5,307.4"/>
			<path class="st11" d="M339.9,301.5L339.9,301.5L339.9,301.5L339.9,301.5 M340.1,305.4c-0.1-0.1-1.3-1.5-1.3-1.5l1.2-2.4l0,0
				L340.1,305.4 M340.1,305.4L340.1,305.4L340.1,305.4L340.1,305.4"/>
			<path class="st12" d="M333.2,297.4c-0.4-0.5-0.6-0.8-0.6-0.8c3.8-1.6,7.2-1.9,9.6-1.9c1.5,0,2.5,0.1,2.9,0.2
				C344.1,294.9,339.1,295.1,333.2,297.4"/>
			<path class="st13" d="M339.9,301.5L339.9,301.5L339.9,301.5L339.9,301.5 M337.9,303.3c0,0-1.6-0.9-1.7-0.9l3.8-0.8l0,0
				L337.9,303.3"/>
			<polyline class="st14" points="339.9,301.6 339.9,301.5 339.9,301.5 339.9,301.5 339.9,301.6 			"/>
			<path class="st15" d="M336.1,302.4L336.1,302.4L336.1,302.4L336.1,302.4"/>
			<path class="st6" d="M334.4,287.9c0.1-0.1,1.5-1.3,1.5-1.3l2.4,1.2l0,0L334.4,287.9 M334.4,287.9L334.4,287.9L334.4,287.9
				L334.4,287.9"/>
			<path class="st16" d="M345,292.9c0-0.2,0-0.5,0-1l0,0l0,0l0,0l0,0c-0.1-1.9-0.6-6.1-2.5-10.8c0.5-0.4,0.8-0.6,0.8-0.6
				C345.9,286.7,345.1,292.1,345,292.9"/>
			<path class="st11" d="M338.3,287.8L338.3,287.8l-1.8-2.1c0,0,0.9-1.6,0.9-1.7L338.3,287.8 M338.3,287.8L338.3,287.8L338.3,287.8
				L338.3,287.8"/>
			<polyline class="st17" points="338.3,287.8 338.2,287.8 338.3,287.8 338.3,287.8 338.3,287.8 			"/>
			<path class="st18" d="M337.4,284c2.4-2,4.7-3.6,4.7-3.6c2.8,6.8,2.8,12.6,2.8,12.6l-6.7-5.2L337.4,284"/>
			<path class="st9" d="M336.2,294.6c-1.2,0-2.5-0.1-3.8-0.3c0,0,0.1-0.4,0.4-0.9c1.8,0.2,3.5,0.3,5,0.3c3.8,0,6.5-0.6,7.1-0.7
				C344.2,293.3,340.9,294.6,336.2,294.6"/>
			<g>
				<path class="st19" d="M334.4,287.9c-1.4,2.8-2.3,5.4-2.3,5.4c7.3,1.1,12.9-0.3,12.9-0.3l-6.7-5.2L334.4,287.9"/>
			</g>
			<path class="st19" d="M357.6,299.8c1.4-2.8,2.3-5.4,2.3-5.4c-7.3-1.1-12.9,0.3-12.9,0.3l6.7,5.2L357.6,299.8"/>
			<path class="st18" d="M354.6,303.7c-2.4,2-4.7,3.6-4.7,3.6c-2.8-6.8-2.8-12.6-2.8-12.6l6.7,5.2L354.6,303.7"/>
			<path class="st18" d="M340.1,305.4c2.8,1.4,5.4,2.3,5.4,2.3c1.1-7.3-0.3-12.9-0.3-12.9l-5.2,6.7L340.1,305.4"/>
			<path class="st20" d="M336.1,302.4c-2-2.4-3.6-4.7-3.6-4.7c6.8-2.8,12.6-2.8,12.6-2.8l-5.2,6.7L336.1,302.4"/>
		</g>
	</g>
</g>
<g id="britishColumbiaPin" style="cursor: pointer;">
	<g>
		<path class="st4" d="M197.1,223c0,12.7-23,45.9-23,45.9s-23-33.2-23-45.9s10.3-23,23-23S197.1,210.3,197.1,223z"/>
		<path class="st5" d="M192.4,223.3c0,10.1-8.2,18.2-18.2,18.2c-10.1,0-18.2-8.2-18.2-18.2c0-10.1,8.2-18.2,18.2-18.2
			C184.2,205,192.4,213.2,192.4,223.3z"/>
	</g>
	<g>
		<path class="st6" d="M186.5,228L186.5,228C186.6,228,186.6,228,186.5,228L186.5,228 M182.7,228.1L182.7,228.1L182.7,228.1
			L182.7,228.1 M185.1,229.3l-2.4-1.2l0,0l3.9-0.1C186.4,228,185.1,229.3,185.1,229.3"/>
		<path class="st6" d="M182.7,228.1L182.7,228.1L182.7,228.1L182.7,228.1 M183.5,231.9l-0.8-3.8l0,0l1.8,2.1
			C184.4,230.2,183.5,231.8,183.5,231.9 M183.5,231.9L183.5,231.9L183.5,231.9L183.5,231.9"/>
		<polyline class="st7" points="182.7,228.1 182.7,228.1 182.7,228.1 182.7,228.1 182.7,228.1 		"/>
		<g>
			<path class="st8" d="M176.1,222.8c0.6-0.3,3.9-1.6,8.7-1.6c1.2,0,2.5,0.1,3.8,0.3c0,0-0.1,0.4-0.4,0.9c-1.8-0.2-3.5-0.3-5-0.3
				C179.4,222.1,176.7,222.7,176.1,222.8"/>
			<path class="st9" d="M177.7,235.4c-2.6-6.2-1.9-11.6-1.7-12.4c0,0.9,0.2,6,2.6,11.8C178,235.2,177.7,235.4,177.7,235.4"/>
			<path class="st10" d="M175.5,235.7c0,0-0.4-0.1-0.9-0.3c0.9-6.3-0.2-11.2-0.4-12.1C174.5,223.9,176.5,229,175.5,235.7"/>
			<path class="st11" d="M168.9,229.8L168.9,229.8L168.9,229.8L168.9,229.8 M169,233.7c-0.1-0.1-1.3-1.5-1.3-1.5l1.2-2.4l0,0
				L169,233.7 M169,233.7L169,233.7L169,233.7L169,233.7"/>
			<path class="st12" d="M162.1,225.6c-0.4-0.5-0.6-0.8-0.6-0.8c3.8-1.6,7.2-1.9,9.6-1.9c1.5,0,2.5,0.1,2.9,0.2
				C173.1,223.1,168,223.3,162.1,225.6"/>
			<path class="st13" d="M168.9,229.8L168.9,229.8L168.9,229.8L168.9,229.8 M166.8,231.5c0,0-1.6-0.9-1.7-0.9l3.8-0.8l0,0
				L166.8,231.5"/>
			<polyline class="st14" points="168.9,229.8 168.9,229.8 168.9,229.8 168.9,229.8 168.9,229.8 			"/>
			<path class="st15" d="M165.1,230.6L165.1,230.6L165.1,230.6L165.1,230.6"/>
			<path class="st6" d="M163.3,216.1c0.1-0.1,1.5-1.3,1.5-1.3l2.4,1.2l0,0L163.3,216.1 M163.3,216.1L163.3,216.1L163.3,216.1
				L163.3,216.1"/>
			<path class="st16" d="M173.9,221.1c0-0.2,0-0.5,0-1l0,0l0,0l0,0l0,0c-0.1-1.9-0.6-6.1-2.5-10.8c0.5-0.4,0.8-0.6,0.8-0.6
				C174.8,214.9,174,220.3,173.9,221.1"/>
			<path class="st11" d="M167.2,216L167.2,216l-1.8-2.1c0,0,0.9-1.6,0.9-1.7L167.2,216 M167.2,216L167.2,216L167.2,216L167.2,216"/>
			<polyline class="st17" points="167.2,216 167.2,216 167.2,216 167.2,216 167.2,216 			"/>
			<path class="st18" d="M166.4,212.2c2.4-2,4.7-3.6,4.7-3.6c2.8,6.8,2.8,12.6,2.8,12.6l-6.7-5.2L166.4,212.2"/>
			<path class="st9" d="M165.1,222.9c-1.2,0-2.5-0.1-3.8-0.3c0,0,0.1-0.4,0.4-0.9c1.8,0.2,3.5,0.3,5,0.3c3.8,0,6.5-0.6,7.1-0.7
				C173.2,221.5,169.8,222.9,165.1,222.9"/>
			<g>
				<path class="st19" d="M163.3,216.1c-1.4,2.8-2.3,5.4-2.3,5.4c7.3,1.1,12.9-0.3,12.9-0.3l-6.7-5.2L163.3,216.1"/>
			</g>
			<path class="st19" d="M186.6,228c1.4-2.8,2.3-5.4,2.3-5.4c-7.3-1.1-12.9,0.3-12.9,0.3l6.7,5.2L186.6,228"/>
			<path class="st18" d="M183.5,231.9c-2.4,2-4.7,3.6-4.7,3.6c-2.8-6.8-2.8-12.6-2.8-12.6l6.7,5.2L183.5,231.9"/>
			<path class="st18" d="M169,233.7c2.8,1.4,5.4,2.3,5.4,2.3c1.1-7.3-0.3-12.9-0.3-12.9l-5.2,6.7L169,233.7"/>
			<path class="st20" d="M165.1,230.6c-2-2.4-3.6-4.7-3.6-4.7c6.8-2.8,12.6-2.8,12.6-2.8l-5.2,6.7L165.1,230.6"/>
		</g>
	</g>
</g>
<g id="albertaText" style="cursor: pointer;">
	<g>
		<path class="st5" d="M304.8,375.1h-1.6l5.5-13.3h1.7l5.5,13.3h-1.6l-1.4-3.6h-6.5L304.8,375.1z M306.8,370.1h5.4l-2.7-6.7
			L306.8,370.1z"/>
		<path class="st5" d="M325.8,375.1h-8.2v-13.3h1.6v12h6.6V375.1z"/>
		<path class="st5" d="M327.8,375.1v-13.3h4.7c1.3,0,2.3,0.3,3,0.9s1.1,1.4,1.1,2.4c0,0.7-0.2,1.4-0.5,1.9c-0.4,0.5-0.8,0.9-1.4,1.2
			c0.8,0.2,1.5,0.6,1.9,1.2c0.5,0.6,0.7,1.3,0.7,2.1c0,0.7-0.2,1.4-0.5,1.9s-0.9,1-1.5,1.3c-0.7,0.3-1.4,0.5-2.3,0.5h-5.2V375.1z
			 M329.4,367.6h3.1c0.8,0,1.4-0.2,1.9-0.6s0.7-1,0.7-1.6c0-0.7-0.2-1.2-0.7-1.6s-1.1-0.6-2-0.6h-3V367.6z M329.4,373.7h3.2
			c0.6,0,1.2-0.1,1.6-0.3s0.8-0.5,1.1-0.9c0.3-0.4,0.4-0.8,0.4-1.3s-0.1-0.9-0.4-1.3c-0.2-0.4-0.6-0.6-1-0.8c-0.4-0.2-1-0.3-1.6-0.3
			h-3.3L329.4,373.7L329.4,373.7z"/>
		<path class="st5" d="M339.4,375.1v-13.3h8.2v1.4H341v4.5h6.2v1.4H341v4.7h6.7v1.4h-8.3V375.1z"/>
		<path class="st5" d="M360,375.1h-1.7l-3.2-5.4H352v5.4h-1.6v-13.3h4.6c1,0,1.8,0.2,2.5,0.5s1.2,0.8,1.6,1.4s0.6,1.3,0.6,2.1
			c0,1-0.3,1.8-0.8,2.4s-1.2,1.1-2.1,1.3L360,375.1z M351.9,368.3h3c1,0,1.7-0.2,2.3-0.7c0.6-0.5,0.8-1.1,0.8-1.9s-0.3-1.4-0.8-1.9
			s-1.3-0.7-2.3-0.7h-3V368.3z"/>
		<path class="st5" d="M366.8,375.1h-1.6v-12H361v-1.4h10.1v1.4h-4.3L366.8,375.1L366.8,375.1z"/>
		<path class="st5" d="M373.5,375.1h-1.6l5.5-13.3h1.7l5.5,13.3H383l-1.4-3.6h-6.5L373.5,375.1z M375.5,370.1h5.4l-2.7-6.7
			L375.5,370.1z"/>
	</g>
</g>
<g id="ontarioText" style="cursor: pointer;">
	<g>
		<path class="st5" d="M816,504.1c-1,0-1.9-0.2-2.8-0.5c-0.8-0.3-1.6-0.8-2.2-1.5c-0.6-0.6-1.1-1.4-1.5-2.2
			c-0.3-0.8-0.5-1.8-0.5-2.8s0.2-1.9,0.5-2.8s0.8-1.6,1.5-2.2c0.6-0.6,1.4-1.1,2.2-1.4s1.8-0.5,2.8-0.5s1.9,0.2,2.8,0.5
			s1.6,0.8,2.2,1.4c0.6,0.6,1.1,1.4,1.5,2.2s0.5,1.8,0.5,2.8s-0.2,1.9-0.5,2.8c-0.3,0.8-0.8,1.6-1.5,2.2c-0.6,0.6-1.4,1.1-2.2,1.5
			S817,504.1,816,504.1z M816,502.7c0.8,0,1.5-0.1,2.1-0.4s1.2-0.7,1.7-1.2s0.9-1.1,1.1-1.8c0.3-0.7,0.4-1.4,0.4-2.2
			c0-0.8-0.1-1.5-0.4-2.2c-0.3-0.7-0.6-1.3-1.1-1.8s-1-0.9-1.7-1.2c-0.6-0.3-1.4-0.4-2.1-0.4s-1.5,0.1-2.1,0.4s-1.2,0.7-1.7,1.2
			s-0.9,1.1-1.1,1.8c-0.3,0.7-0.4,1.4-0.4,2.2c0,0.8,0.1,1.5,0.4,2.2s0.6,1.3,1.1,1.8s1,0.9,1.7,1.2
			C814.5,502.6,815.2,502.7,816,502.7z"/>
		<path class="st5" d="M836.7,503.8H835l-8.4-10.9v10.9H825v-13.3h1.7l8.4,10.9v-10.9h1.6V503.8z"/>
		<path class="st5" d="M844.2,503.8h-1.6v-12h-4.3v-1.4h10.1v1.4h-4.3L844.2,503.8L844.2,503.8z"/>
		<path class="st5" d="M850.8,503.8h-1.6l5.5-13.3h1.7l5.5,13.3h-1.6l-1.4-3.6h-6.5L850.8,503.8z M852.8,498.8h5.4l-2.7-6.7
			L852.8,498.8z"/>
		<path class="st5" d="M873.3,503.8h-1.7l-3.2-5.4h-3.1v5.4h-1.6v-13.3h4.6c1,0,1.8,0.2,2.5,0.5s1.2,0.8,1.6,1.4
			c0.4,0.6,0.6,1.3,0.6,2.1c0,1-0.3,1.8-0.8,2.4s-1.2,1.1-2.1,1.3L873.3,503.8z M865.2,497h3c1,0,1.7-0.2,2.3-0.7s0.8-1.1,0.8-1.9
			s-0.3-1.4-0.8-1.9s-1.3-0.7-2.3-0.7h-3V497z"/>
		<path class="st5" d="M876.9,503.8h-1.6v-13.3h1.6V503.8z"/>
		<path class="st5" d="M885.9,504.1c-1,0-1.9-0.2-2.8-0.5c-0.8-0.3-1.6-0.8-2.2-1.5c-0.6-0.6-1.1-1.4-1.5-2.2
			c-0.3-0.8-0.5-1.8-0.5-2.8s0.2-1.9,0.5-2.8s0.8-1.6,1.5-2.2c0.6-0.6,1.4-1.1,2.2-1.4s1.8-0.5,2.8-0.5s1.9,0.2,2.8,0.5
			s1.6,0.8,2.2,1.4c0.6,0.6,1.1,1.4,1.5,2.2s0.5,1.8,0.5,2.8s-0.2,1.9-0.5,2.8c-0.3,0.8-0.8,1.6-1.5,2.2c-0.6,0.6-1.4,1.1-2.2,1.5
			S886.9,504.1,885.9,504.1z M885.9,502.7c0.8,0,1.5-0.1,2.1-0.4s1.2-0.7,1.7-1.2s0.9-1.1,1.1-1.8c0.3-0.7,0.4-1.4,0.4-2.2
			c0-0.8-0.1-1.5-0.4-2.2c-0.3-0.7-0.6-1.3-1.1-1.8s-1-0.9-1.7-1.2c-0.6-0.3-1.4-0.4-2.1-0.4s-1.5,0.1-2.1,0.4s-1.2,0.7-1.7,1.2
			s-0.9,1.1-1.1,1.8c-0.3,0.7-0.4,1.4-0.4,2.2c0,0.8,0.1,1.5,0.4,2.2s0.6,1.3,1.1,1.8s1,0.9,1.7,1.2
			C884.5,502.6,885.2,502.7,885.9,502.7z"/>
	</g>
</g>
<g id="quebecText" style="cursor: pointer;">
	<g>
		<path class="st5" d="M1093.2,427.6c-0.9-0.1-1.6-0.3-2.3-0.5s-1.3-0.3-1.9-0.5s-1.2-0.5-1.9-0.8h-0.4c-1,0-1.9-0.2-2.8-0.5
			c-0.8-0.3-1.6-0.8-2.2-1.4s-1.1-1.4-1.5-2.2c-0.3-0.8-0.5-1.8-0.5-2.8s0.2-1.9,0.5-2.8s0.8-1.6,1.5-2.2c0.6-0.6,1.4-1.1,2.2-1.4
			c0.8-0.3,1.8-0.5,2.8-0.5s1.9,0.2,2.8,0.5s1.6,0.8,2.2,1.4s1.1,1.4,1.5,2.2s0.5,1.8,0.5,2.8c0,1.1-0.2,2-0.6,2.9s-0.9,1.6-1.6,2.3
			s-1.5,1.1-2.4,1.4c0.6,0.2,1.1,0.3,1.5,0.4c0.5,0.1,1,0.2,1.4,0.2c0.5,0.1,1,0.1,1.5,0.1L1093.2,427.6z M1086.7,424.5
			c0.8,0,1.5-0.1,2.1-0.4s1.2-0.7,1.7-1.2s0.9-1.1,1.1-1.8c0.3-0.7,0.4-1.4,0.4-2.2c0-0.8-0.1-1.5-0.4-2.2s-0.6-1.3-1.1-1.8
			s-1-0.9-1.7-1.2c-0.6-0.3-1.4-0.4-2.1-0.4s-1.5,0.1-2.1,0.4s-1.2,0.7-1.7,1.2s-0.9,1.1-1.1,1.8c-0.3,0.7-0.4,1.4-0.4,2.2
			c0,0.8,0.1,1.5,0.4,2.2s0.6,1.3,1.1,1.8s1,0.9,1.7,1.2C1085.3,424.3,1086,424.5,1086.7,424.5z"/>
		<path class="st5" d="M1107,412.3v7.4c0,1.3-0.2,2.4-0.7,3.3s-1.1,1.6-1.9,2.1s-1.8,0.7-3,0.7s-2.2-0.2-3-0.7s-1.5-1.2-1.9-2.1
			s-0.7-2-0.7-3.3v-7.4h1.6v7.2c0,1,0.2,1.9,0.5,2.7c0.3,0.7,0.8,1.3,1.4,1.7s1.3,0.6,2.2,0.6c0.8,0,1.6-0.2,2.2-0.6s1.1-1,1.4-1.7
			s0.5-1.6,0.5-2.7v-7.2H1107z"/>
		<path class="st5" d="M1109.7,425.6v-13.3h8.2v1.4h-6.6v4.5h6.2v1.4h-6.2v4.7h6.7v1.4h-8.3V425.6z"/>
		<path class="st5" d="M1120.7,425.6v-13.3h4.7c1.3,0,2.3,0.3,3,0.9s1.1,1.4,1.1,2.4c0,0.7-0.2,1.4-0.5,1.9
			c-0.4,0.5-0.8,0.9-1.5,1.2c0.8,0.2,1.5,0.6,1.9,1.2c0.5,0.6,0.7,1.3,0.7,2.1c0,0.7-0.2,1.4-0.5,1.9c-0.4,0.6-0.9,1-1.5,1.3
			s-1.4,0.5-2.3,0.5h-5.1V425.6z M1122.2,418.2h3.1c0.8,0,1.4-0.2,1.9-0.6s0.7-1,0.7-1.6c0-0.7-0.2-1.2-0.7-1.6s-1.1-0.6-2-0.6h-3
			V418.2z M1122.2,424.2h3.2c0.6,0,1.2-0.1,1.6-0.3c0.5-0.2,0.8-0.5,1.1-0.9s0.4-0.8,0.4-1.3s-0.1-0.9-0.4-1.3
			c-0.2-0.4-0.6-0.6-1-0.8c-0.4-0.2-1-0.3-1.6-0.3h-3.3L1122.2,424.2L1122.2,424.2z"/>
		<path class="st5" d="M1132.3,425.6v-13.3h8.2v1.4h-6.6v4.5h6.2v1.4h-6.2v4.7h6.7v1.4h-8.3V425.6z"/>
		<path class="st5" d="M1154.5,423.9c-0.6,0.6-1.3,1.1-2.2,1.4s-1.8,0.5-2.8,0.5s-1.9-0.2-2.8-0.5c-0.8-0.3-1.6-0.8-2.2-1.5
			c-0.6-0.6-1.1-1.4-1.5-2.2c-0.3-0.8-0.5-1.8-0.5-2.8s0.2-1.9,0.5-2.8s0.8-1.6,1.5-2.2c0.6-0.6,1.4-1.1,2.2-1.4
			c0.8-0.3,1.8-0.5,2.8-0.5s1.9,0.2,2.8,0.5c0.8,0.3,1.6,0.8,2.2,1.4l-1.1,1.1c-0.5-0.5-1-0.9-1.7-1.2s-1.4-0.4-2.2-0.4
			c-0.8,0-1.5,0.1-2.1,0.4s-1.2,0.7-1.7,1.2s-0.8,1.1-1.1,1.8c-0.3,0.7-0.4,1.4-0.4,2.2c0,0.8,0.1,1.5,0.4,2.2s0.6,1.3,1.1,1.8
			s1,0.9,1.7,1.2c0.6,0.3,1.4,0.4,2.1,0.4c0.8,0,1.5-0.1,2.2-0.4s1.2-0.7,1.7-1.2L1154.5,423.9z"/>
	</g>
</g>
<g id="britishColumbiaText" style="cursor: pointer;">
	<g>
		<path class="st5" d="M142.2,302.4V289h4.7c1.3,0,2.3,0.3,3,0.9s1.1,1.4,1.1,2.4c0,0.7-0.2,1.4-0.5,1.9c-0.4,0.5-0.8,0.9-1.4,1.2
			c0.8,0.2,1.5,0.6,1.9,1.2c0.5,0.6,0.7,1.3,0.7,2.1c0,0.7-0.2,1.4-0.5,1.9s-0.9,1-1.5,1.3c-0.7,0.3-1.4,0.5-2.3,0.5H142.2z
			 M143.7,294.9h3.1c0.8,0,1.4-0.2,1.9-0.6s0.7-1,0.7-1.6c0-0.7-0.2-1.2-0.7-1.6s-1.1-0.6-2-0.6h-3V294.9z M143.7,301h3.2
			c0.6,0,1.2-0.1,1.6-0.3s0.8-0.5,1.1-0.9s0.4-0.8,0.4-1.3s-0.1-0.9-0.4-1.3c-0.2-0.4-0.6-0.6-1-0.8c-0.4-0.2-1-0.3-1.6-0.3h-3.3
			V301z"/>
		<path class="st5" d="M163.4,302.4h-1.7l-3.2-5.4h-3.1v5.4h-1.6V289h4.6c1,0,1.8,0.2,2.5,0.5s1.2,0.8,1.6,1.4s0.6,1.3,0.6,2.1
			c0,1-0.3,1.8-0.8,2.4s-1.2,1.1-2.1,1.3L163.4,302.4z M155.3,295.6h3c1,0,1.7-0.2,2.3-0.7s0.8-1.1,0.8-1.9s-0.3-1.4-0.8-1.9
			s-1.3-0.7-2.3-0.7h-3V295.6z"/>
		<path class="st5" d="M167,302.4h-1.6V289h1.6V302.4z"/>
		<path class="st5" d="M174.6,302.4H173v-12h-4.3V289h10.1v1.4h-4.3v12H174.6z"/>
		<path class="st5" d="M182.1,302.4h-1.6V289h1.6V302.4z"/>
		<path class="st5" d="M184.2,301.1l0.8-1.2c0.4,0.3,0.8,0.6,1.2,0.8c0.4,0.2,0.8,0.4,1.2,0.5s0.8,0.2,1.2,0.2
			c0.6,0,1.1-0.1,1.6-0.3c0.5-0.2,0.8-0.5,1.1-0.8c0.3-0.4,0.4-0.8,0.4-1.2c0-0.5-0.1-0.9-0.4-1.3c-0.3-0.3-0.7-0.6-1.1-0.9
			c-0.5-0.2-0.9-0.5-1.5-0.7c-0.4-0.2-0.9-0.4-1.3-0.6c-0.4-0.2-0.8-0.4-1.2-0.7c-0.3-0.3-0.6-0.6-0.8-1s-0.3-0.9-0.3-1.4
			c0-0.7,0.2-1.3,0.5-1.9c0.4-0.5,0.8-1,1.5-1.3c0.6-0.3,1.4-0.5,2.2-0.5c0.6,0,1.1,0.1,1.7,0.2c0.6,0.1,1.1,0.4,1.6,0.6l-0.6,1.3
			c-0.4-0.2-0.8-0.4-1.3-0.6c-0.5-0.1-0.9-0.2-1.3-0.2c-0.5,0-1,0.1-1.4,0.3c-0.4,0.2-0.7,0.4-0.9,0.7c-0.2,0.3-0.3,0.7-0.3,1.1
			c0,0.5,0.1,0.9,0.4,1.2c0.3,0.3,0.6,0.6,1,0.8c0.4,0.2,0.9,0.4,1.4,0.7c0.5,0.2,0.9,0.4,1.4,0.6c0.4,0.2,0.9,0.5,1.2,0.8
			c0.4,0.3,0.7,0.7,0.9,1.1s0.3,0.9,0.3,1.5c0,0.8-0.2,1.4-0.6,2c-0.4,0.6-0.9,1-1.6,1.3c-0.7,0.3-1.5,0.5-2.4,0.5
			c-0.8,0-1.6-0.1-2.3-0.4C185.6,302,184.9,301.6,184.2,301.1z"/>
		<path class="st5" d="M197.1,302.4h-1.6V289h1.6v6.1h7.4V289h1.6v13.3h-1.6v-5.9h-7.4V302.4z"/>
		<path class="st5" d="M137.4,322.5c-0.6,0.6-1.3,1.1-2.2,1.4c-0.8,0.3-1.8,0.5-2.8,0.5s-1.9-0.2-2.8-0.5s-1.6-0.8-2.2-1.5
			s-1.1-1.4-1.4-2.2c-0.3-0.8-0.5-1.8-0.5-2.8s0.2-1.9,0.5-2.8s0.8-1.6,1.4-2.2s1.4-1.1,2.2-1.4s1.8-0.5,2.8-0.5s1.9,0.2,2.8,0.5
			c0.8,0.3,1.6,0.8,2.2,1.4l-1.1,1.1c-0.5-0.5-1-0.9-1.7-1.2c-0.7-0.3-1.4-0.4-2.2-0.4s-1.5,0.1-2.1,0.4s-1.2,0.7-1.7,1.2
			s-0.8,1.1-1.1,1.8c-0.3,0.7-0.4,1.4-0.4,2.2c0,0.8,0.1,1.5,0.4,2.2s0.6,1.3,1.1,1.8s1,0.9,1.7,1.2c0.6,0.3,1.4,0.4,2.1,0.4
			c0.8,0,1.5-0.1,2.2-0.4s1.2-0.7,1.7-1.2L137.4,322.5z"/>
		<path class="st5" d="M146.1,324.5c-1,0-1.9-0.2-2.8-0.5s-1.6-0.8-2.2-1.5s-1.1-1.4-1.4-2.2c-0.3-0.8-0.5-1.8-0.5-2.8
			s0.2-1.9,0.5-2.8s0.8-1.6,1.4-2.2s1.4-1.1,2.2-1.4s1.8-0.5,2.8-0.5s1.9,0.2,2.8,0.5s1.6,0.8,2.2,1.4s1.1,1.4,1.4,2.2
			c0.3,0.8,0.5,1.8,0.5,2.8s-0.2,1.9-0.5,2.8c-0.3,0.8-0.8,1.6-1.4,2.2s-1.4,1.1-2.2,1.5S147.1,324.5,146.1,324.5z M146.1,323.1
			c0.8,0,1.5-0.1,2.1-0.4s1.2-0.7,1.7-1.2s0.9-1.1,1.1-1.8s0.4-1.4,0.4-2.2c0-0.8-0.1-1.5-0.4-2.2c-0.3-0.7-0.6-1.3-1.1-1.8
			s-1-0.9-1.7-1.2c-0.6-0.3-1.4-0.4-2.1-0.4s-1.5,0.1-2.1,0.4s-1.2,0.7-1.7,1.2s-0.9,1.1-1.1,1.8c-0.3,0.7-0.4,1.4-0.4,2.2
			c0,0.8,0.1,1.5,0.4,2.2s0.6,1.3,1.1,1.8s1,0.9,1.7,1.2C144.6,323,145.3,323.1,146.1,323.1z"/>
		<path class="st5" d="M163.3,324.2h-8.2v-13.3h1.6v12h6.6L163.3,324.2L163.3,324.2z"/>
		<path class="st5" d="M176.5,310.9v7.4c0,1.3-0.2,2.4-0.7,3.3s-1.1,1.6-1.9,2.1c-0.8,0.5-1.8,0.7-3,0.7s-2.2-0.2-3-0.7
			s-1.5-1.2-1.9-2.1s-0.7-2-0.7-3.3v-7.4h1.6v7.2c0,1,0.2,1.9,0.5,2.7c0.3,0.7,0.8,1.3,1.4,1.7s1.3,0.6,2.2,0.6
			c0.8,0,1.6-0.2,2.2-0.6c0.6-0.4,1.1-1,1.4-1.7c0.3-0.7,0.5-1.6,0.5-2.7v-7.2H176.5z"/>
		<path class="st5" d="M192.7,324.2h-1.6v-11.1l-4.5,8.9h-1.4l-4.4-8.8v11.1h-1.6V311h2l4.7,9.5l4.7-9.5h2v13.2H192.7z"/>
		<path class="st5" d="M195.5,324.2v-13.3h4.7c1.3,0,2.3,0.3,3,0.9s1.1,1.4,1.1,2.4c0,0.7-0.2,1.4-0.5,1.9c-0.4,0.5-0.8,0.9-1.4,1.2
			c0.8,0.2,1.5,0.6,1.9,1.2c0.5,0.6,0.7,1.3,0.7,2.1c0,0.7-0.2,1.4-0.5,1.9s-0.9,1-1.5,1.3c-0.7,0.3-1.4,0.5-2.3,0.5h-5.2V324.2z
			 M197.1,316.8h3.1c0.8,0,1.4-0.2,1.9-0.6s0.7-1,0.7-1.6c0-0.7-0.2-1.2-0.7-1.6s-1.1-0.6-2-0.6h-3V316.8z M197.1,322.8h3.2
			c0.6,0,1.2-0.1,1.6-0.3s0.8-0.5,1.1-0.9s0.4-0.8,0.4-1.3s-0.1-0.9-0.4-1.3c-0.2-0.4-0.6-0.6-1-0.8c-0.4-0.2-1-0.3-1.6-0.3h-3.3
			V322.8z"/>
		<path class="st5" d="M208.7,324.2h-1.6v-13.3h1.6V324.2z"/>
		<path class="st5" d="M212.1,324.2h-1.6l5.5-13.3h1.7l5.5,13.3h-1.6l-1.4-3.6h-6.5L212.1,324.2z M214.1,319.2h5.4l-2.7-6.7
			L214.1,319.2z"/>
	</g>
</g>
<path class="st1" d="M206.9,3.8c1.2,4.9,0.7,9.1-1.4,12c0.1,0.2,0.2,0.3,0.3,0.5c1.9,3.1,5.3,8.8,1.7,18.4l-0.5,1.4
	c-4.4,11.6-5.3,14.1-5.3,17.7c0,1.1,0.2,2.6,0.5,4.2c0.6,3.8,1.3,8.4-0.7,12.3c0.4,0.5,1,1.1,1.4,1.5c3.1,3.3,7.2,7.8,7.7,14.2
	c0.2,2.7,1.3,5.4,2.6,8.7c2.3,5.8,5.2,12.9,3.9,22.9c-0.3,2.8,0.5,5.3,2.5,7.8c4,4.9,11.2,7.6,13.1,7.8c0.5-0.1,1.8-0.6,2.5-0.9
	c2.6-1.1,6.2-2.6,9.4-0.4c1.4,0.9,3,2.8,3,6.3c0,4.3-1.5,18.3-2.3,25.7c55.5,21.8,110.9,38.6,165.4,50.2
	c53,11.2,106,17.5,157.8,18.7V105.6l-94.6-24.7L455,55.2L436.5,54L395.7,0h-190C206.3,1.4,206.7,2.7,206.9,3.8z"/>
<path class="st1" d="M804.6,8c0,2.5,3.7,9.3,6.2-1.2c0,0,7.2,1.6,9.6-5.6c0.1-0.4,0.2-0.8,0.3-1.2H794C798.5,1.9,804.6,6.1,804.6,8z
	"/>
<path class="st1" d="M661,10.4c-1.2-0.2-4.6-5.1-7.6-10.4H518.2c0.2,0.8,0.3,1.4,0.5,1.9c0.4,1.8,0.7,6.2-0.4,7.9
	c-1.1,1.8-6.2-2.9-6.6,0s4,13.4,4.8,14.5s2.1,5.2,0.3,6c-1.8,0.7-13-18.5-13.4-22.2s2.4-1.7,4.8-2.2c1.3-0.3,1.7-3.2,1.4-5.9H408.2
	l33.5,44.3l18.6,1.3l19.5,26.6l98.7,25.7v135c36.4,0.4,72.2-1.6,106.8-6.2c-0.5-6.1-1.3-11.4-2.1-12c-1.9-1.4,4.5-2.9,6.6-5.8
	c2.1-2.9-0.9-11.7,5.1-20.3s6.7-12.3,6.7-14s3-15.6,13.6-24.3s1.7-7.6,0-10.3s14.3-0.2,17-8.9s-1-14.5-14.1-17s-35.1-5.9-37.9-6.2
	c-2.8-0.3-13.7-5-16.5-5.3s-7.2-5,3.7-4.4s16.8,6.5,18.3,6.5s7.8-1.9,11.2-1.6s9.3,5,12.7,4.7s13.7,2.2,17.4,2.2s14.6-0.9,14.6-3.7
	s0-8.1,3.4-9.3c3.4-1.2,14.7-2.2,17.9-4.4c3.2-2.2,2-8.7,4.8-15.5s8.1-17.7,5-21.1c-3.1-3.4-22.4-0.6-25.2,0s-6.2-4.4-8.7-6.8
	c-2.5-2.5-10-1.9-13.1-2.8c-3.1-0.9-4.4-7.5-0.9-7.5c3.4,0,19.9,2.5,22.4,5.3s11.2,6.8,13.1,6.8s9.6-4.7,14.6-12.1
	c5-7.5,4-10,3.4-12.7c-0.6-2.8-10-4.7-10-8.4s6.5-4,10-4c3.4,0,5.6,5.9,7.2,5.9c1.6,0,16.5,1.2,16.8-4c0.3-5.3-2.5-9-8.4-10.9
	c-4-1.3-5.7-3.4-5.3-4.6H662.8C664.4,6,662.8,10.8,661,10.4z"/>
<path class="st1" d="M12,41.6c3.2,2.1,6.6,4.4,10.1,6.7c34.4,22.5,89.9,56,158.4,87.8c18.4,8.5,36.8,16.5,55.2,23.9
	c0.6-5.9,1.4-13.2,1.7-17.9c-1.5,0.6-3.1,1-4.7,1c-3.8,0-13.9-3.6-20.2-10.7c-4.2-4.8-6-10.3-5.3-16.1c0.9-7.4-1.1-12.5-3.3-17.9
	c-1.5-3.6-3-7.4-3.3-11.6c-0.2-2.9-2.8-5.7-5.1-8.2c-1.4-1.5-2.7-2.9-3.6-4.4c-1.7-3-1.5-6.2,0.7-8.6c0.5-0.8-0.1-4.3-0.3-6
	c-0.3-1.9-0.6-3.8-0.6-5.7c0-5.5,1.4-9.2,6-21.2l0.5-1.4c1.9-5,0.6-7.2-0.9-9.7c-1.3-2.2-4.1-6.8,0.1-11.4c0.9-1.6-1.1-7.9-2.8-9.7
	c-0.1-0.1-0.3-0.2-0.4-0.2H42.7C25.9,22.6,14,38.8,12,41.6z"/>
<path class="st1" d="M1080.1,27.2c-2-1.3-5.3-4.2-3.3-4.5s7.1-0.6,5.3-2.4c-1.8-1.8-8.6-6.1-11.2-7.6c-2.5-1.5-6.3-7.4-6.1-9.6
	c0.3-2.3,6.1,2,7.1,2.5s4.8,5.3,6.3,5.3s5.6,1,3-3.5c-2.5-4.6-5.8-4.3-8.6-6.6c-0.4-0.3-0.7-0.6-1-0.9H934.3
	c-0.3,1.5-1.4,2.9-4.2,2.9c-4.4,0-1.1,5.3-3.3,5.6c-2.3,0.3-5,5.4-7.2,5.7c-2.3,0.3-9,2.3-11.4,2.3s-9.2,0.1-11.4,0.6
	c-2.3,0.4-2.7-0.1-4.4,1.8c0,0,1.4,7.7-1.2,8.6c-2.7,0.9-3.5,7.1-3.5,8s2.6,5,2.6,5s-3.2,1.5-2.6,3.2c0.6,1.8,4.2,8.6,11.5,8.6
	c7.4,0,16.8-4.4,20.6-7.7c3.8-3.2-3.2-5.9,0-9.2s4.7,1.5,8.9,2.4c4.1,0.9,8.4,0,7.8-2.2c-0.7-2.2-5.4-6.9-8.4-6.5s-0.9-4.1,2.4-4.1
	c3.2,0,4.7,5.1,7.7,4.1s0.3-2.9,2-2.8c1.7,0.2,1.5,3.8,2.5,4.4s1.9-2.5,4.7-1.9s2.9-1.7,4.2,3.9c1.3,5.7,5.7,5,5.7,2.8
	s7.3-6,6.8-2.8s1.1,6.3,4.6,6.6s5.1,6.9,6,4.4s-0.3-3.8,2.8-3.5s5.7,1.3,7.6,1.6c1.9,0.3,6.6-0.3,6.3,1.9s-3.5,2.2-3.8,5.4
	s4.1,4.1,3.8,5.7c-0.3,1.6,3.6,3.8,4.7,3.8c1,0,20.3,3.5,20.9,0c0.6-3.5,0-3.5,3.8-3.5s7.3,5,9.5,5s47.4,0,47.4,0s5.7-1.2,2.8-4.1
	c-2.8-2.8-2.2-9.2-2.2-9.2s-5.1-0.6-7.6-0.6s-11.4-6.3-14.8-6.8s-26.8-5.8-26.8-8s1.6-6,3.2-5.1s6-4.1,3.2-7.6s11.7,9.5,18,8.8
	s12.6-2,14.2,1.4s8.8,1,10.6,1.5c1.8,0.5,8.1,2.3,8.1,1.3S1082.1,28.5,1080.1,27.2z"/>
<path class="st1" d="M1381.7,214.6c-12.9-4.6,0.6-5.5-5.7-12.6c-6.3-7.1-9.1-19.8-32.2-10.2c0,0,2.5,11.4-0.5,12.2s-6.6,0.5-6.9-2
	s2-9.9,0.3-12.4c-1.8-2.5-9.4-3.8-13.2,0s-3.8,8.9-6.3,11.7s-3,3.8-4.1,7.1c-1,3.3-0.8,6.6-2.5,7.4c-1.8,0.8-7.9,7.6-7.9,12.4
	c0,4.8-1.8,6.1-6.1,3.6c-4.3-2.5-6.9-1-8.6-1.3c-1.8-0.3-4.3-5.8,0.8-5.8c5.1,0,9.9,1.3,9.9,0s0.3-10.4,2-11.9
	c1.8-1.5,6.6-8.6,8.6-10.7c2-2,5.1-5.3,3.8-5.8c-1.3-0.5,9.4-11.4,11.2-17.3c1.8-5.8,5.6-8.4,0-7.6c-5.6,0.8-4.3,3.3-8.9,2.5
	s-3.6-3.8-6.6-2s-3,6.6-4.1,7.6c-1,1-2,6.9-8.1,2.5c-6.1-4.3-22.1,2-31,9.9s-3.6-6.9-4.1-8.4s-11.4-3-15.2-3s-7.1-7.4-9.9-7.9
	s-3.6,3-5.8,3c-2.3,0-1-3.8-3-4.3s-6.5,0.2-3.9-3.9s-3.9-3.9-6.6-4.5s4.8-6.9,5.2-9.5c0.3-2.7,4.4-11.1-7.7-6.6
	c-12,4.5-4.1,0-7.7-3.1s-3.8,5.9-5.9,4.8c-2.2-1.1-3.6-5.2-0.6-6.6c3-1.4,3.2-9.2-0.4-8.7s-5.8,4.9-7.5-2.1s-3.6,0.2-5.5,2.9
	c-0.4,0.6-1,1.2-1.6,1.8c1.5,0.6,2.8,1.5,3.9,2.6c4,4.1,3.8,10.3,3.6,16.3c-0.2,4.7-0.3,9.5,1.5,12.1c1.1,1.5,1.8,2.4,2.4,2.9
	c1.7-0.6,3.2-0.1,3.7,0.2c0.7,0.3,3,1.6,3,4.8c0,1.3-0.4,2.4-0.9,3.5c0.3,0,0.6,0,0.8,0c4.2-0.1,7.8-0.1,10.2,2.3
	c1.2,1.2,1.8,2.7,1.8,4.4s-0.5,3.2-1,4.6v0.1c6.3,3.3,18.7,12.6,18.2,21c-0.2,3.2-1,5.2-1.8,6.5c0.3,0.3,0.6,0.7,0.9,1
	c1.3,1.5,3.7,4.2,2.2,7.6c-0.7,1.6-2.4,3.4-6.3,3.4c-2.1,0-5.1,0.4-7.3,0.7c-2.5,3.2-7.2,6.7-14.8,6.9c-3.5,0.1-3.9,0.9-4.4,2.1
	c-0.5,1.1-1.4,3.3-4.1,4.1c-0.8,0.2-2,0.6-10.1-0.5c-0.9-0.1-1.8-0.2-2.8-0.4c1.2,1.8,2.1,3.5,2.1,5.4c0,1.8-0.8,3.5-2.3,4.5
	c-1.4,1.1-3,1.3-4.8,1.1c0.2,0.5,0.4,1,0.5,1.5c0.9,3.9-1.9,8-4.8,12.3c-0.1,0.2-0.2,0.3-0.3,0.5c1.4,0.7,2.9,1.8,3.6,3.8
	c0,0.1,4,10.4,13.4,10.4c0.2,0,0.4,0,0.6,0c4.6-0.2,9.6,0.1,11.8,3.8c2.1,3.6,0,7.1-1.1,8.9c-0.1,0.2-0.3,0.5-0.4,0.7
	c-0.1,1.6-0.4,2.8-0.7,3.8c-0.2,0.9-0.4,1.6-0.5,2.6c0.4,0.8,1.9,2.1,3.1,2.8c0.4-1.1,0.7-2.4,0.9-3.2c0.9-3.6,2-7.6,6.2-8.1
	c0.1,0,0.5-0.1,0.8-0.2c2.1-0.4,5.5-1.2,8.3,1.1c1.5,1.2,2.3,2.9,2.4,4.9c0.2,0.7,1.1,2.2,1.7,3.2c1.7,2.9,3.7,6.2,3.9,9.7
	c1,0.2,2.7,0.2,3.4,0.2c1.1,0,4.2-1.2,6-1.9c3.7-1.4,6.6-2.5,9.3-1.9c2,0.5,3.7,1.8,5.3,3.1c0.7,0.6,1.9,1.5,2.5,1.8
	c0.7,0,1.7,0.1,2.8,0.1c1.3,0.1,3.8,0.2,5.9,0.2c-0.6-5.4-2.2-14.4-3.8-16.7c-6.1-3.9-4.8-15.6-3.9-19.5c1.6-6.6,5.3-7.6,7.3-7.6
	c5.8,0,7.6,6.8,9.7,15.3c0.4,1.5,0.8,3.3,1.3,4.9c5.6-2.7,20.2-10.9,58.6-35.6c23.2-14.9,45.6-29.8,52.3-34.2V216
	C1384.1,215.5,1383,215,1381.7,214.6z"/>
<path class="st1" d="M1324.4,461.6c-1.9-1.2-5,6.4-5.4,0.8s2-12.8-8.4-9.2c-10.4,3.5,2.2-10.6,2.2-10.6s-1-8.4-1-9.8
	s-8.4-1.5-11.4,1.6c-3,3.2-0.4,7.5-2.6,7.5c-0.9,0-1.9-0.6-3-1.2v1.1c0.6,0,1-0.1,1-0.1c-1,0.3-5,2-6.3,2.7
	c-0.1,0.1-0.2,0.2-0.3,0.3c-10,11.2-16.1,15.7-21.1,15.4c-3.2-0.2-10.4,2.4-13,4.2c0.6,0.8,1.6,1.8,2.1,2.4c0.6,0.6,1.1,1.2,1.6,1.7
	c2.2,2.7,1.9,6.5-0.9,11.5c4.9,4.4,16.7,25.1,19.2,35.9c0,0,5.2,1.2,7.2,1.2s3.8,7,5.2,8c1.3,1,2.2,1,4.2,2.3s5.3-4.3,7-4.3
	s2.2,2,3.5,3.3s7.7-10,10.5-10.5s8.5-8.7,10-12.2c1-2.4,5.4-11.4,8.6-16.7V468C1329.8,466.1,1325.7,462.5,1324.4,461.6z"/>
<path class="st1" d="M1384.3,457.4c-1.4,0.4-4.8,8-6.8,8s-16.1,5.9-21.1,5.9s-6.3,2.2-9,0s4.2-6.8-1.2-5.5c-0.6,0.1-1.1,0.3-1.6,0.4
	v21.6h-6.1c-1.4,1.8-2.9,5-3.4,5.8c-0.7,1.1-0.7,4,0,4s4.3-3.6,5.9-3.6s6.8-2.2,8.7-2.6s6.6-5.7,8.1-6.3c1.5-0.5,5.5-1.1,6-1
	s4.7,0.5,2.7,3c-1.9,2.5-2.6,2.9-5.2,3.6s-5.3,2.5-6,4.9c-0.7,2.5,0.3,4.4-1.4,5.5c-1.6,1.1-4.9,3.3-6.2,0.4
	c-1.2-2.9,1.1-2.5-1.2-2.9c-2.3-0.4-2-0.3-2.2,0.7c-0.2,0.9-8.9,14.2-10.3,16.2s-2.8,5.6-3.9,5.9c-1.1,0.2-2,2.5-0.9,3.5
	c1.1,1.1,3.1,3.3,1.3,4.1c-1.8,0.8-4.3,1.6-5,2.5c-0.7,0.8,2.9,5.8,2,9.8s-1.6,4.3-1.1,5.6c0.4,1.3,3,9.3,4.4,11.1s6.6,7.8,7.2,5
	s1.8-8.4,2.4-7.9c0.6,0.6,6.4,7.3,8.4,7.1c2.1-0.3,1.7-6.2,4.7-10.4s4-9.4,4-10.8c0-1.4,2.8-9.1,3-12.7c0.3-3.6-1.5-11.9,0-12.6
	c1.5-0.7,4.7-6.2,6.5-6.6s8.6-4.3,9.3-5.4c0.3-0.4,4.2-5.8,8.8-12.2v-34.3C1384.7,457.2,1384.4,457.3,1384.3,457.4z"/>
<path class="st2" d="M1344.5,466.2c-4,1.3-5.1,3.2-7.7,3.3c-0.9,0-2.2-0.6-3.6-1.4V487c1.4-2.4,2.6-4.1,3.1-4.1
	c1.6-0.1,2.5-2.5,2.7-4.4c0.3-1.9,2.2,2.6,1.9,3.4c-0.3,0.8,0.3,4.2-1.2,4.8c-0.4,0.1-0.8,0.6-1.3,1.2h6.1V466.2z"/>
</svg>
