<?xml version="1.0" encoding="utf-8"?>
<!-- Generator: Adobe Illustrator 26.5.0, SVG Export Plug-In . SVG Version: 6.00 Build 0)  -->
<svg version="1.1" id="Layer_1" xmlns="http://www.w3.org/2000/svg" xmlns:xlink="http://www.w3.org/1999/xlink" x="0px" y="0px"
	 viewBox="0 0 48 48" style="enable-background:new 0 0 48 48;" xml:space="preserve">
<style type="text/css">
	.st0{fill:#8D1360;}
</style>
<path class="st0" d="M9.7,42c-0.4,0-0.8-0.1-1.1-0.5c-0.3-0.3-0.4-0.6-0.4-1v-2.1H7.5c-1.5,0-2.8-0.5-3.9-1.6
	C2.5,35.7,2,34.4,2,32.9V20.7c0-1.7,0.5-3,1.5-3.9c1-0.9,2.3-1.3,3.7-1.3v-4.3c0-1.5,0.5-2.8,1.5-3.8S10.9,6,12.4,6h23.2
	c1.5,0,2.8,0.5,3.7,1.4s1.4,2.2,1.4,3.8v4.3c1.4,0,2.6,0.4,3.7,1.3c1,0.9,1.5,2.2,1.5,3.9v12.2c0,1.5-0.5,2.8-1.6,3.9
	c-1.1,1.1-2.4,1.6-3.9,1.6h-0.6v2.1c0,0.4-0.2,0.8-0.5,1c-0.3,0.3-0.7,0.5-1,0.5c-0.4,0-0.8-0.1-1.1-0.5c-0.3-0.3-0.4-0.6-0.4-1
	v-2.1H11.2v2.1c0,0.4-0.2,0.8-0.5,1C10.4,41.9,10.1,42,9.7,42z M7.5,35.4h33c0.7,0,1.2-0.2,1.8-0.8s0.8-1.1,0.8-1.8V20.7
	c0-0.7-0.2-1.2-0.6-1.6c-0.4-0.4-0.9-0.6-1.6-0.6c-0.7,0-1.2,0.2-1.6,0.6s-0.6,0.9-0.6,1.6v8.8H9.4v-8.8c0-0.7-0.2-1.2-0.6-1.6
	s-0.9-0.6-1.6-0.6S6,18.7,5.6,19.1C5.2,19.5,5,20,5,20.7v12.2c0,0.7,0.2,1.2,0.8,1.8S6.8,35.4,7.5,35.4z M12.4,26.5h23.2v-5.8
	c0-1,0.2-1.9,0.7-2.6c0.5-0.7,1-1.2,1.5-1.6v-5.3c0-0.7-0.2-1.2-0.6-1.6C36.8,9.2,36.3,9,35.6,9H12.4c-0.7,0-1.2,0.2-1.6,0.6
	c-0.4,0.4-0.6,0.9-0.6,1.6v5.3c0.5,0.4,1,0.9,1.5,1.6c0.5,0.7,0.7,1.5,0.7,2.6V26.5z"/>
</svg>
