<?xml version="1.0" encoding="utf-8"?>
<!-- Generator: Adobe Illustrator 26.5.0, SVG Export Plug-In . SVG Version: 6.00 Build 0)  -->
<svg version="1.1" id="Layer_1" xmlns="http://www.w3.org/2000/svg" xmlns:xlink="http://www.w3.org/1999/xlink" x="0px" y="0px"
	 viewBox="0 0 48 48" style="enable-background:new 0 0 48 48;" xml:space="preserve">
<style type="text/css">
	.st0{fill:#8D1360;}
</style>
<path class="st0" d="M22.5,36.2h3v-6h6v-3h-6v-6h-3v6h-6v3h6V36.2z M7,44c-0.8,0-1.5-0.3-2.1-0.9C4.3,42.5,4,41.8,4,41V15
	c0-0.8,0.3-1.5,0.9-2.1C5.5,12.3,6.2,12,7,12h9V7c0-0.8,0.3-1.5,0.9-2.1C17.5,4.3,18.2,4,19,4h10c0.8,0,1.5,0.3,2.1,0.9S32,6.2,32,7
	v5h9c0.8,0,1.5,0.3,2.1,0.9c0.6,0.6,0.9,1.3,0.9,2.1v26c0,0.8-0.3,1.5-0.9,2.1C42.5,43.7,41.8,44,41,44H7z M7,41h34V15H7V41z M19,12
	h10V7H19V12z M7,41V15V41z"/>
</svg>
