<?xml version="1.0" encoding="utf-8"?>
<!-- Generator: Adobe Illustrator 26.5.0, SVG Export Plug-In . SVG Version: 6.00 Build 0)  -->
<svg version="1.1" id="Layer_1" xmlns="http://www.w3.org/2000/svg" xmlns:xlink="http://www.w3.org/1999/xlink" x="0px" y="0px"
	 viewBox="0 0 48 48" style="enable-background:new 0 0 48 48;" xml:space="preserve">
<style type="text/css">
	.st0{fill:#8D1360;}
</style>
<path class="st0" d="M32,22c0.6,0,1-0.2,1.4-0.6C33.8,21,34,20.6,34,20s-0.2-1-0.6-1.4C33,18.2,32.6,18,32,18s-1,0.2-1.4,0.6
	C30.2,19,30,19.4,30,20s0.2,1,0.6,1.4C31,21.8,31.4,22,32,22z M16,17h10v-3H16V17z M9,42c-1.1-3.8-2.2-7.6-3.3-11.4S4,23,4,19
	c0-3.1,1.1-5.7,3.2-7.8S11.9,8,15,8h10c1-1.3,2.1-2.2,3.5-2.9C29.9,4.3,31.4,4,33,4c0.8,0,1.5,0.3,2.1,0.9C35.7,5.5,36,6.2,36,7
	c0,0.2,0,0.4-0.1,0.6c0,0.2-0.1,0.4-0.2,0.5c-0.1,0.4-0.3,0.7-0.4,1.1c-0.1,0.4-0.2,0.8-0.3,1.2l4.5,4.6H44v14l-5.6,1.9L35,42H24v-4
	h-4v4H9z M11.2,39H17v-4h10v4h5.8l3.2-10.5l5.1-1.8V18h-2.6L32,11.6c0-0.8,0.1-1.6,0.3-2.4s0.4-1.6,0.6-2.4
	c-1.3,0.3-2.5,0.8-3.6,1.5c-1.1,0.7-2,1.6-2.6,2.7H15c-2.2,0-4.1,0.8-5.7,2.3S7,16.8,7,19c0,3.4,0.5,6.8,1.4,10.1S10.4,35.7,11.2,39
	z"/>
</svg>
