<?xml version="1.0" encoding="utf-8"?>
<!-- Generator: Adobe Illustrator 28.3.0, SVG Export Plug-In . SVG Version: 6.00 Build 0)  -->
<svg version="1.1" id="Layer_1" xmlns="http://www.w3.org/2000/svg" xmlns:xlink="http://www.w3.org/1999/xlink" x="0px" y="0px"
	 viewBox="0 0 25 25" style="enable-background:new 0 0 25 25;" xml:space="preserve">
<style type="text/css">
	.st0{clip-path:url(#SVGID_00000097501911810159480070000006520847908889992881_);}
	.st1{fill:#FFFFFF;}
</style>
<g>
	<defs>
		<rect id="SVGID_1_" width="25" height="25"/>
	</defs>
	<clipPath id="SVGID_00000138535548297959290080000015100425941885320359_">
		<use xlink:href="#SVGID_1_"  style="overflow:visible;"/>
	</clipPath>
	<g style="clip-path:url(#SVGID_00000138535548297959290080000015100425941885320359_);">
		<path class="st1" d="M5.7,2.1C5.6,2,5.5,1.9,5.4,1.8C5.2,1.7,5.1,1.7,4.9,1.7c-0.2,0-0.3,0-0.4,0.1C4.4,1.8,4.2,1.9,4.1,2L2.5,3.6
			c-0.8,0.8-1,1.8-0.7,2.8c1.4,3.9,3.6,7.4,6.5,10.3c2.9,2.9,6.4,5.1,10.3,6.5c0.9,0.3,2,0.1,2.8-0.7l1.6-1.6
			c0.1-0.1,0.2-0.2,0.2-0.4c0.1-0.1,0.1-0.3,0.1-0.4c0-0.1-0.1-0.3-0.1-0.4c-0.1-0.1-0.2-0.2-0.3-0.3l-3.6-2.8
			c-0.1-0.1-0.3-0.2-0.4-0.2c-0.2,0-0.3,0-0.5,0L15,17.2c-0.5,0.1-0.9,0.1-1.4,0c-0.5-0.1-0.9-0.4-1.2-0.7l-3.8-3.8
			c-0.3-0.3-0.6-0.7-0.7-1.2c-0.1-0.5-0.1-0.9,0-1.4l0.9-3.4c0-0.2,0-0.3,0-0.5c0-0.2-0.1-0.3-0.2-0.4L5.7,2.1z M2.9,0.8
			c0.3-0.3,0.6-0.5,1-0.6C4.3,0,4.7,0,5,0c0.4,0,0.8,0.1,1.1,0.3C6.5,0.5,6.8,0.7,7,1.1l2.8,3.6c0.5,0.7,0.7,1.5,0.5,2.3l-0.9,3.4
			c0,0.2,0,0.4,0,0.5c0,0.2,0.1,0.3,0.3,0.5l3.8,3.8c0.1,0.1,0.3,0.2,0.5,0.3s0.4,0.1,0.5,0l3.4-0.9c0.4-0.1,0.8-0.1,1.2,0
			c0.4,0.1,0.8,0.3,1.1,0.5l3.6,2.8c1.3,1,1.4,2.9,0.3,4.1l-1.6,1.6c-1.2,1.2-2.9,1.7-4.5,1.1c-4.1-1.4-7.9-3.8-11-6.9
			C4,14.8,1.7,11,0.2,6.9c-0.6-1.6-0.1-3.3,1.1-4.5L2.9,0.8z"/>
	</g>
</g>
</svg>
