<?xml version="1.0" encoding="UTF-8"?>
<svg id="Layer_2" data-name="Layer 2" xmlns="http://www.w3.org/2000/svg" viewBox="0 0 336.86 330.63">
  <defs>
    <style>
      .cls-1 {
        opacity: .15;
      }

      .cls-2 {
        fill: #231f20;
      }
    </style>
  </defs>
  <g id="Layer_1-2" data-name="Layer 1">
    <g class="cls-1">
      <path class="cls-2" d="m159.51,176.09c-.13-.57-.23-1-.3-1.29l-.17-.7h-.71c-.29,0-.73,0-1.32.02h0c-3.43-.57-16.05-2.44-34.49-2.44-27.21,0-69.3,4.06-115.32,23.38l-.55.23.33.5s2.41,3.67,6.48,9.49c-2.22.89-4.44,1.79-6.67,2.73l-.55.23.33.5c.19.28,18.79,28.48,42.32,56.36l.58.68s15.75,8.36,20.98,11.25l.3.17,23.13-19.71-13.51,27.22.24.25c4.08,4.37,15.89,17.58,15.89,17.58l.91.44c32.74,16.1,64.6,27.32,64.92,27.43l.57.2.09-.59c.37-2.39.71-4.76,1.04-7.13,6.63,2.53,10.73,3.97,10.77,3.98l.57.2.09-.59c12.62-81.6-12.95-143.6-15.91-150.41h0ZM8.15,195.76c45.64-19.06,87.36-23.07,114.37-23.07,12.72,0,22.65.89,28.69,1.63-17.88.84-65.14,4.94-120.92,24.65-1.06.37-2.11.75-3.18,1.13-.49.18-.97.35-1.46.53-1.69.62-3.39,1.25-5.09,1.9-.22.09-.45.17-.67.26-1.82.69-3.64,1.4-5.48,2.13-3.26-4.67-5.46-7.95-6.26-9.15Zm62.46,80.25c-2.2-1.22-14.84-8.21-19.2-10.42l36.01-7.95,6.4-1.41-23.22,19.78Zm16.61-19.35l-37.24,8.21c-21.92-25.92-39.63-52.23-42.25-56.16,2.11-.88,4.22-1.74,6.31-2.58h0s.37-.15.37-.15c2.1-.84,4.19-1.65,6.26-2.44.14-.05.28-.11.41-.16.69-.26,1.39-.52,2.08-.78.52-.19,1.04-.39,1.56-.58.38-.14.76-.28,1.14-.42.87-.32,1.73-.63,2.6-.94.07-.02.13-.05.2-.07,65.57-23.48,120.21-25.34,128.88-25.48l-61.45,78.65-.93,1.15-7.93,1.75Zm-5.66,27.89l13.58-27.31,1.18,43.43c-3.15-3.64-12.73-13.94-14.76-16.12Zm80.51,44.73c-4.45-1.59-34.27-12.4-64.71-27.41l-1.25-46.24.77-1.04,61.55-78.78c2.16,9.33,15.87,73.61,3.64,153.47Zm12.46-3.54c-1.36-.48-5.07-1.82-10.39-3.85.04-.33.08-.66.13-.99.18-1.34.35-2.68.51-4.01.1-.77.19-1.54.28-2.31.12-1.02.23-2.03.34-3.04.17-1.55.33-3.09.49-4.62.04-.37.07-.73.11-1.1,5.77-59.23-1.72-106.36-5.25-124.01,6.74,17.73,24.54,73.43,13.78,143.93Z"/>
      <path class="cls-2" d="m154.53,153.28c.59-.13,1.02-.24,1.31-.3l.7-.17S170.2,80.15,135.57.97l-.23-.55-.5.33s-3.67,2.42-9.5,6.48c-.89-2.21-1.79-4.44-2.73-6.67l-.23-.55-.5.33c-.28.19-28.48,18.78-56.36,42.31l-.68.58s-8.35,15.75-11.25,20.98l-.17.3,19.81,23.24-27.32-13.62-.25.24c-4.37,4.07-15.73,14.59-17.3,15.77l-.73,1.02C11.53,123.88.31,155.74.2,156.06l-.2.57.59.09c2.39.37,4.76.71,7.13,1.03-2.53,6.64-3.97,10.74-3.99,10.78l-.2.57.59.09c15.1,2.33,30.5,3.51,45.77,3.51,56.99,0,97.11-16.16,104.63-19.42ZM134.88,1.91c27.58,66.02,23.95,123.17,21.45,143.14-.08-1.8-.2-3.94-.37-6.4v-.1c-1.71-24.62-7.9-74.25-30.23-130.38,4.67-3.26,7.95-5.46,9.15-6.26Zm-12.96-.41c31.19,74.54,33.44,140.24,33.6,149.8l-79.77-62.32-5.47-24.77-4.52-20.46C91.67,21.82,117.98,4.12,121.92,1.5Zm-67.29,62.88c1.44-2.6,8.25-14.91,10.42-19.2l4.23,19.15,5.13,23.26-19.78-23.21Zm-8.54,10.94l27.32,13.58-28.04.76-15.4.42c3.68-3.19,14.28-13.04,16.12-14.76ZM1.34,155.83c1.59-4.45,12.4-34.25,27.4-64.69l39.51-1.09,6.8-.18.04.03.99.77,78.74,61.53c-7.63,1.77-52.14,11.28-111.89,7.95-.88-.05-1.76-.1-2.64-.15-1.2-.07-2.4-.15-3.61-.24-1.57-.11-3.14-.23-4.7-.35-.71-.06-1.42-.12-2.13-.18-2.1-.18-4.2-.37-6.3-.58-.25-.03-.51-.05-.77-.08-2.28-.23-4.55-.48-6.82-.75-.12-.01-.24-.03-.36-.04-2.38-.28-4.76-.58-7.13-.91-2.37-.32-4.75-.66-7.14-1.03Zm7.39,2.07c.08.01.15.02.23.03,2.18.29,4.34.56,6.5.82.47.06.93.11,1.4.16,2.1.24,4.19.47,6.26.68.49.05.97.09,1.46.14,1.63.16,3.24.31,4.85.45.87.08,1.74.15,2.61.22,1.53.12,3.05.24,4.56.34,10.59.75,21.26,1.13,31.95,1.13,38.22,0,67.1-4.72,80.34-7.38-14.16,5.44-50.42,17.21-98.99,17.21-15.01,0-30.15-1.15-45.02-3.41.48-1.36,1.82-5.08,3.86-10.4Z"/>
      <path class="cls-2" d="m336.27,167.68c-2.39-.37-4.76-.71-7.12-1.04,2.53-6.64,3.97-10.73,3.98-10.78l.2-.57-.59-.09c-15.1-2.33-30.49-3.51-45.75-3.51-56.99,0-97.17,16.18-104.65,19.42-.59.13-1.02.24-1.31.3l-.7.17v.71c0,.3,0,.77.02,1.4-2.02,12.12-10.29,75.36,20.95,149.72l.23.55.5-.33s3.66-2.41,9.48-6.47c.89,2.21,1.79,4.44,2.73,6.67l.23.55.5-.33c.29-.19,28.92-19.07,56.99-42.85l.18-.42c.67-1.6,6.94-13.06,11.12-20.6l.17-.3-19.73-23.15,26.95,13.38.31.15.25-.24c6.29-5.87,15.87-14.71,17.28-15.76l.36-.24v-.04s0,0,0,0c16.28-33,27.67-65.35,27.78-65.67l.2-.57-.59-.09Zm-49.29-14.98c15.01,0,30.14,1.15,45,3.41-.48,1.36-1.82,5.08-3.85,10.4-2.42-.33-4.81-.63-7.2-.91-.08,0-.17-.02-.25-.03-2.15-.25-4.27-.48-6.39-.7-.52-.05-1.03-.11-1.55-.16-1.75-.17-3.49-.33-5.22-.48-1.49-.13-2.98-.25-4.47-.36-.76-.06-1.52-.12-2.27-.17-10.76-.77-21.62-1.18-32.47-1.18-38.19,0-67.06,4.72-80.3,7.38,14.18-5.44,50.45-17.2,98.97-17.2Zm-84.99,169.79c-27.59-66.03-23.96-123.14-21.45-143.12.77,16.72,4.39,59.42,21.23,110.92.07.21.13.41.2.62.35,1.06.7,2.12,1.05,3.18.47,1.39.94,2.78,1.43,4.18.16.45.32.9.47,1.35,1.92,5.47,3.98,11.02,6.21,16.63-4.67,3.26-7.95,5.46-9.15,6.25Zm12.95.42c-.88-2.11-1.74-4.21-2.58-6.31h0s-.15-.37-.15-.37c-1.72-4.32-3.35-8.61-4.89-12.84-.05-.15-.11-.29-.16-.44-.26-.71-.51-1.42-.76-2.13-.2-.55-.39-1.1-.58-1.65-.12-.35-.24-.69-.36-1.03-20.64-59.36-23.64-109.08-24.07-122.6-.02-.7-.03-1.31-.04-1.82h0c0-.22,0-.43-.01-.61l79.78,62.33v.02s.99,4.49.99,4.49l8.99,40.73c-25.91,21.92-52.23,39.63-56.16,42.25Zm67.3-62.89c-1.44,2.6-8.23,14.87-10.41,19.19l-.04-.18v.03s-5.65-25.52-5.65-25.52l-3.69-16.73,19.79,23.22Zm8.56-10.94l-27.33-13.58,43.43-1.18c-3.64,3.15-13.93,12.73-16.1,14.75Zm17.32-15.79l-46.29,1.25h-.01l-79.78-62.33c7.93-1.84,55.88-12.09,119.4-7.47.82.06,1.64.12,2.46.19,1.24.1,2.49.2,3.75.31,1.75.15,3.49.31,5.23.48.46.05.91.09,1.37.14,2.24.23,4.48.47,6.72.74.03,0,.05,0,.08,0,2.45.29,4.9.6,7.34.93l.39.05h0c2.23.3,4.48.63,6.74.97-1.59,4.45-12.4,34.27-27.4,64.71Z"/>
    </g>
  </g>
</svg>