<?xml version="1.0" encoding="utf-8"?>
<!-- Generator: Adobe Illustrator 27.7.0, SVG Export Plug-In . SVG Version: 6.00 Build 0)  -->
<svg version="1.1" id="Layer_1" xmlns="http://www.w3.org/2000/svg" xmlns:xlink="http://www.w3.org/1999/xlink" x="0px" y="0px"
	 viewBox="0 0 300.4 285.2" style="enable-background:new 0 0 300.4 285.2;" xml:space="preserve">
<style type="text/css">
	.st0{fill:url(#SVGID_1_);}
</style>
<linearGradient id="SVGID_1_" gradientUnits="userSpaceOnUse" x1="23.8161" y1="147.0224" x2="279.8161" y2="147.0224">
	<stop  offset="0" style="stop-color:#7197CF"/>
	<stop  offset="1" style="stop-color:#F1698C"/>
</linearGradient>
<path class="st0" d="M279.8,100.7c0-19.1-7.5-37.1-21-50.7c-28-27.9-73.4-27.9-101.4,0c0,0,0,0,0,0l-5.6,5.6l-5.6-5.6c0,0,0,0,0,0
	c-28-27.9-73.4-27.9-101.4,0c-13.5,13.5-21,31.5-21,50.7s7.5,37.1,21,50.7l11.2,11.2l-5.6,5.6c-3.1,3.1-4.5,7.7-3.8,12.7
	c0.7,4.6,3,9.1,6.6,12.7c4.4,4.4,10.1,6.8,15.2,6.8c0.2,0,0.3,0,0.5,0c0,1,0,2,0.1,3.1c0.7,4.6,3,9.1,6.6,12.7
	c4.4,4.4,10.1,6.8,15.2,6.8c0.2,0,0.3,0,0.5,0c0,1,0,2,0.1,3.1c0.7,4.6,3,9.1,6.6,12.7c4.4,4.4,10.1,6.8,15.2,6.8
	c1.2,0,2.3-0.1,3.4-0.4c0,0.2,0,0.4,0.1,0.6c0.7,4.6,3,9.1,6.6,12.7c4.4,4.4,10.1,6.8,15.2,6.8c3.9,0,7.5-1.3,10.1-3.9l2.8-2.8
	l2.8,2.8c0,0,0,0,0,0c2.7,2.7,6.3,3.9,10.1,3.9c5.2,0,10.8-2.3,15.2-6.8c3.6-3.6,6-8.1,6.6-12.7c0-0.2,0-0.4,0.1-0.6
	c0.5,0.1,1.1,0.2,1.6,0.3c0,0,0.1,0,0.1,0c0.6,0.1,1.1,0.1,1.7,0.1c5.2,0,10.8-2.3,15.2-6.8c3.6-3.6,6-8.1,6.6-12.7
	c0.1-0.5,0.1-1.1,0.1-1.6c0-0.5,0-1,0-1.5c0,0,0,0,0,0c0.2,0,0.3,0,0.5,0c5.2,0,10.8-2.3,15.2-6.8c3.6-3.6,6-8.1,6.6-12.7
	c0.1-1,0.2-2.1,0.1-3.1c0.2,0,0.3,0,0.5,0c5.2,0,10.8-2.3,15.2-6.8c3.6-3.6,6-8.1,6.6-12.7c0.7-4.9-0.7-9.5-3.8-12.7c0,0,0,0,0,0
	s0,0,0,0l-5.6-5.6l11.3-11.2C272.4,137.8,279.8,119.8,279.8,100.7z M73,190.7c-3,3-9.5,1.8-14.1-2.8c-2.4-2.4-4-5.3-4.4-8.2
	c-0.2-1.4-0.3-4.1,1.5-5.9l33.8-33.8c0,0,0,0,0,0c3-3,9.5-1.8,14.1,2.8c2.4,2.4,4,5.3,4.4,8.2c0.2,1.4,0.3,4.1-1.5,5.9L73,190.7z
	 M95.5,213.2C95.5,213.2,95.5,213.2,95.5,213.2c-3,3-9.5,1.8-14.1-2.8c-2.4-2.4-4-5.3-4.4-8.2c-0.2-1.4-0.3-4.1,1.5-5.9c0,0,0,0,0,0
	l33.8-33.8c0,0,0,0,0,0c0,0,0,0,0,0l2.8-2.8c0,0,0,0,0,0c3-3,9.5-1.8,14.1,2.8c2.4,2.4,4,5.3,4.4,8.2c0.2,1.4,0.3,4.1-1.5,5.9
	c0,0,0,0,0,0l-2.8,2.8c0,0,0,0,0,0c0,0,0,0,0,0L95.5,213.2z M120.8,232.9c-0.6,0.6-1.1,1.3-1.6,2c-0.4,0.2-0.9,0.5-1.2,0.8
	c-3,3-9.5,1.8-14.1-2.8c-2.4-2.4-4-5.3-4.4-8.2c-0.2-1.4-0.3-4.1,1.5-5.9c0,0,0,0,0,0c0,0,0,0,0,0l33.8-33.8c3-3,9.5-1.8,14.1,2.8
	c2.4,2.4,4,5.3,4.4,8.2c0.2,1.4,0.3,4.1-1.5,5.9l-5.6,5.6c0,0,0,0,0,0c0,0,0,0,0,0L120.8,232.9z M149,249.8
	C149,249.8,149,249.8,149,249.8C149,249.8,149,249.8,149,249.8l-5.6,5.6c-3,3-9.5,1.8-14.1-2.8c-2.4-2.4-4-5.3-4.4-8.2
	c-0.2-1.4-0.3-4.1,1.5-5.9c0,0,0,0,0,0l25.3-25.3c0,0,0,0,0,0c3-3,9.5-1.8,14.1,2.8c2.4,2.4,4,5.3,4.4,8.2c0.2,1.4,0.3,4.1-1.5,5.9
	L149,249.8z M178.7,244.4c-0.4,2.8-2,5.8-4.4,8.2c-4.6,4.6-11,5.9-14.1,2.8c0,0,0,0,0,0l-2.8-2.8l16.9-16.9l2.8,2.8c0,0,0,0,0,0
	C179,240.3,178.9,243,178.7,244.4z M249.1,179.7c-0.4,2.8-2,5.8-4.4,8.2c-4.6,4.6-11,5.9-14.1,2.8l-31-30.9c-1.6-1.6-4.1-1.6-5.7,0
	c-1.6,1.6-1.6,4.1,0,5.7l31,30.9c1.8,1.8,1.7,4.5,1.5,5.9c-0.4,2.8-2,5.8-4.4,8.2c-4.6,4.6-11,5.9-14.1,2.8c0,0,0,0,0,0s0,0,0,0
	l-2.8-2.8c0,0,0,0,0,0l-1.9-1.9c0,0,0,0,0,0l-26.2-26.2c-1.6-1.6-4.1-1.6-5.7,0c-1.6,1.6-1.6,4.1,0,5.7l26.2,26.2c0,0,0,0,0,0
	l1.9,1.9c0,0,0,0,0,0l2.8,2.8c1.8,1.8,1.7,4.5,1.5,5.9c-0.4,2.8-2,5.8-4.4,8.2c-4.6,4.6-11,5.9-14.1,2.8c0,0,0,0,0,0l-2.8-2.8
	c0,0,0,0,0,0c0,0,0,0,0,0l-4.7-4.7c0.3-1.6,0.3-3.4,0-5.1c-0.7-4.6-3-9.1-6.6-12.7c-3.4-3.4-7.5-5.5-11.6-6.4
	c1.3-2.7,1.8-5.8,1.3-9.1c-0.7-4.6-3-9.1-6.6-12.7c-3.9-3.9-8.7-6.1-13.3-6.6c0.4-1.9,0.5-3.9,0.2-6c-0.7-4.6-3-9.1-6.6-12.7
	c-5.5-5.5-12.7-7.7-18.7-6.4c0-0.2,0-0.4-0.1-0.6c-0.7-4.6-3-9.1-6.6-12.7c-7.8-7.8-19.1-9-25.4-2.8c0,0,0,0,0,0l-22.5,22.5
	l-11.3-11.2c-12-12-18.7-28-18.7-45s6.6-33,18.7-45c24.8-24.8,65.2-24.8,90.1,0c0,0,0,0,0,0l5.6,5.6l-33.8,33.8
	c-3.8,3.8-6,8.7-6.1,13.7c-0.1,5.2,2.1,10.3,6.2,14.4c4.7,4.7,11.3,7.2,17.7,7.2c4.6,0,9.1-1.3,12.7-3.9
	c7.9-5.7,24.6-20.1,31.3-25.9l73.4,73.3C249.3,175.6,249.3,178.3,249.1,179.7z M241.9,156.9l-45.4-45.3c2.5,0.2,5,0.2,7.7,0
	c10.5-0.8,20.4-4.9,26.5-11c1.6-1.6,1.6-4.1,0-5.7c-1.6-1.6-4.1-1.6-5.7,0c-9.4,9.4-32.4,12.6-42.2,2.8c-2.8-2.8-5.7-5.5-5.8-5.6
	c-0.1-0.1-0.2-0.2-0.4-0.3c-0.1-0.1-0.1-0.1-0.2-0.2c-0.2-0.1-0.4-0.2-0.6-0.3c0,0-0.1,0-0.1-0.1c-0.2-0.1-0.4-0.2-0.7-0.2
	c-0.1,0-0.2,0-0.3,0c-0.2,0-0.3,0-0.5,0c-0.1,0-0.2,0-0.3,0c-0.1,0-0.3,0-0.4,0c-0.1,0-0.2,0.1-0.3,0.1c-0.1,0-0.3,0.1-0.4,0.1
	c-0.1,0-0.2,0.1-0.3,0.1c-0.1,0.1-0.3,0.1-0.4,0.2c-0.1,0.1-0.2,0.1-0.3,0.2c-0.1,0.1-0.2,0.1-0.2,0.2c-0.2,0.2-24,21-33.5,27.9
	c-5.5,4-14.7,2.9-20.1-2.5c-2.6-2.6-3.9-5.5-3.8-8.6c0.1-2.9,1.4-5.8,3.7-8.2l36.7-36.6c0,0,0,0,0,0c0,0,0,0,0,0l8.4-8.4
	c0,0,0,0,0,0c24.8-24.8,65.2-24.8,90.1,0c12,12,18.7,28,18.7,45s-6.6,33-18.7,45L241.9,156.9z"/>
</svg>
