<?xml version="1.0" encoding="utf-8"?>
<!-- Generator: Adobe Illustrator 27.2.0, SVG Export Plug-In . SVG Version: 6.00 Build 0)  -->
<svg version="1.1" id="Layer_1" xmlns="http://www.w3.org/2000/svg" xmlns:xlink="http://www.w3.org/1999/xlink" x="0px" y="0px"
	 viewBox="0 0 68 68" style="enable-background:new 0 0 48 48;" xml:space="preserve">
<style type="text/css">
	.st0{fill:#005B96;}
</style>
<path class="st0" d="M4,44l9.3-26l16.85,16.65L4,44z M9.05,38.95l15.7-5.6L14.6,23.15L9.05,38.95z M27.85,25.75l-1.7-1.7l12-12
	c1.07-1.07,2.42-1.61,4.05-1.62s2.98,0.51,4.05,1.57l0.85,0.85l-1.7,1.7l-0.95-0.95c-0.63-0.63-1.37-0.96-2.2-0.98
	c-0.83-0.02-1.58,0.31-2.25,0.98L27.85,25.75z M19.9,18l-1.7-1.7l1.5-1.5c0.77-0.77,1.12-1.64,1.07-2.62
	c-0.05-0.98-0.41-1.81-1.07-2.48l-1.4-1.4L20,6.6l1.3,1.3c1.17,1.17,1.74,2.62,1.72,4.37c-0.02,1.75-0.61,3.21-1.77,4.38L19.9,18z
	 M23.95,21.85l-1.7-1.7l7.6-7.6c0.63-0.63,0.94-1.44,0.92-2.43c-0.02-0.98-0.34-1.79-0.97-2.43l-3.05-3.05l1.7-1.7L31.6,6.1
	c1.03,1.07,1.57,2.41,1.6,4.03s-0.48,2.96-1.55,4.02L23.95,21.85z M31.85,29.8l-1.7-1.7l2.35-2.35c1.17-1.17,2.57-1.77,4.2-1.8
	s3.03,0.53,4.2,1.7l2.55,2.55l-1.7,1.7l-2.6-2.6c-0.77-0.77-1.57-1.15-2.4-1.15c-0.83,0-1.63,0.38-2.4,1.15L31.85,29.8z"/>
</svg>
