<?xml version="1.0" encoding="utf-8"?>
<!-- Generator: Adobe Illustrator 28.1.0, SVG Export Plug-In . SVG Version: 6.00 Build 0)  -->
<svg version="1.1" id="Layer_1" xmlns="http://www.w3.org/2000/svg" xmlns:xlink="http://www.w3.org/1999/xlink" x="0px" y="0px"
	 viewBox="0 0 1450.8 1272.9" style="enable-background:new 0 0 1450.8 1272.9;" xml:space="preserve">
<style type="text/css">
	.st0{fill:#DDD5D9;}
	.st1{fill:none;}
	.st2{fill:#653E51;}
</style>
<path class="st0" d="M1107,660.7c-30.9-8.3-57.8-28.6-81.4-59c-52.6,13.8-101.6,12.8-143.4-0.2c-30.7-9.6-57.5-25.6-79.3-47.1
	c-21.8-21.6-38.3-48.4-48.4-79.6c-13.7-42.4-15.4-92.8-1.6-148.5c-28.2-16.4-47.8-41.2-58.4-71.7c-9.6-27.8-11.6-60-5.6-94.2
	c-126.6,1.7-244.6,51-334.6,131.2c-97.1,86.5-161.5,209-169,346.8v0.5l-0.1,1.2c-6.9,138.8,43,267.1,129.1,362.5
	c85.9,95,207.9,157.3,345.8,164.7h0.5l1.2,0.1c138.7,7,267.1-42.9,362.5-129.1c95-85.9,157.3-207.9,164.7-345.8V692l0.1-1.2
	c0.6-12.2,0.8-24,0.5-35.6C1160.3,666.2,1132.8,667.8,1107,660.7z"/>
<title>automatic-transmission</title>
<title>chimney-factory</title>
<path class="st1" d="M1107,660.7c-30.9-8.3-57.8-28.6-81.4-59c-52.6,13.8-101.6,12.8-143.4-0.2c-30.7-9.6-57.5-25.6-79.3-47.1
	c-21.8-21.6-38.3-48.4-48.4-79.6c-13.7-42.4-15.4-92.8-1.6-148.5c-28.2-16.4-47.8-41.2-58.4-71.7c-9.6-27.8-11.6-60-5.6-94.2
	c-126.6,1.7-244.6,51-334.6,131.2c-97.1,86.5-161.5,209-169,346.8v0.5l-0.1,1.2c-6.9,138.8,43,267.1,129.1,362.5
	c85.9,95,207.9,157.3,345.8,164.7h0.5l1.2,0.1c138.7,7,267.1-42.9,362.5-129.1c95-85.9,157.3-207.9,164.7-345.8V692l0.1-1.2
	c0.6-12.2,0.8-24,0.5-35.6C1160.3,666.2,1132.8,667.8,1107,660.7z M343.4,599c0-36,29.2-65.3,65.3-65.3s65.3,29.2,65.3,65.3
	s-29.2,65.3-65.3,65.3S343.4,635,343.4,599z M473.9,933.5c-30.8,0-55.6-24.8-55.6-55.6s24.8-55.6,55.6-55.6
	c30.7,0,55.6,24.8,55.6,55.6S504.7,933.5,473.9,933.5z M593.7,484.1c-24.1,0-43.6-19.5-43.6-43.6s19.6-43.6,43.6-43.6
	c24.1,0,43.6,19.5,43.6,43.6S617.8,484.1,593.7,484.1z M626,680.1c0-25.2,20.5-45.6,45.6-45.6c25.2,0,45.6,20.4,45.6,45.6
	s-20.4,45.6-45.6,45.6S626,705.3,626,680.1z M717.2,1046.3c-18,0-32.6-14.6-32.6-32.6c-0.1-17.9,14.6-32.6,32.6-32.6
	c18,0,32.6,14.6,32.6,32.6C749.7,1031.7,735.2,1046.3,717.2,1046.3z M812.3,854.9c-18,0-32.6-14.6-32.6-32.6
	c-0.1-17.9,14.6-32.6,32.6-32.6c18,0,32.6,14.6,32.6,32.6C844.9,840.3,830.3,854.9,812.3,854.9z M1018.5,871.3
	c-27.1,0-49.1-21.9-49.1-49.1c0-27,21.9-49.1,49.1-49.1c27.1,0,49.1,21.9,49.1,49.1C1067.5,849.4,1045.6,871.3,1018.5,871.3z"/>
<ellipse transform="matrix(0.9871 -0.1602 0.1602 0.9871 -90.665 73.1934)" class="st2" cx="408.7" cy="599" rx="65.3" ry="65.3"/>
<ellipse transform="matrix(0.9239 -0.3827 0.3827 0.9239 -64.9728 404.4136)" class="st2" cx="984.1" cy="365.5" rx="49.1" ry="49.1"/>
<circle class="st2" cx="473.9" cy="877.9" r="55.6"/>
<path class="st2" d="M1022,218.6c29,0,52.6-23.6,52.6-52.6c0-29-23.6-52.6-52.6-52.6s-52.5,23.5-52.6,52.6
	C969.4,195,993,218.6,1022,218.6z"/>
<path class="st2" d="M1217.8,468c18,0,32.6-14.6,32.6-32.6s-14.6-32.6-32.6-32.6c-18,0-32.7,14.7-32.6,32.6
	C1185.2,453.4,1199.8,468,1217.8,468z"/>
<ellipse transform="matrix(0.7882 -0.6154 0.6154 0.7882 -145.3626 458.6501)" class="st2" cx="593.7" cy="440.5" rx="43.6" ry="43.6"/>
<ellipse transform="matrix(0.7071 -0.7071 0.7071 0.7071 -283.1339 961.0113)" class="st2" cx="1018.5" cy="822.3" rx="49.1" ry="49.1"/>
<circle class="st2" cx="671.6" cy="680.1" r="45.6"/>
<path class="st2" d="M812.3,789.7c-18,0-32.7,14.7-32.6,32.6c0,18,14.6,32.6,32.6,32.6c18,0,32.6-14.6,32.6-32.6
	C844.9,804.3,830.3,789.7,812.3,789.7z"/>
<path class="st2" d="M717.2,981.1c-18,0-32.7,14.7-32.6,32.6c0,18,14.6,32.6,32.6,32.6c18,0,32.6-14.6,32.6-32.6
	C749.7,995.7,735.2,981.1,717.2,981.1z"/>
<path class="st2" d="M1239.9,613.7c-0.1-4.6-1.4-9.2-3.9-13.4c-7.6-12.4-23.8-16.3-36.1-8.6c-30.8,18.8-56.9,24.3-79.2,18.3
	c-22.7-6.1-43.4-24.4-62.4-52.6c-6.3-9.8-18.6-14.6-30.1-10.9c-48.9,15.7-93.5,16.5-130.2,5c-22.7-7.1-42.3-18.7-58.2-34.4
	c-15.8-15.6-27.8-35.2-35.3-58.2c-12.3-38-11.9-85.3,4.7-138.9h-0.1c4.2-13.2-2.7-27.4-15.8-32.3c-24.7-9.2-41.1-27.1-49.2-50.2
	c-8.9-25.5-8.2-57.6,2.5-92.3c1.4-3.1,2.1-6.6,2.1-10.2c0-14.6-11.7-26.3-26.3-26.3c-152.5-7.3-295.9,48.2-403,143.8
	c-107,95.4-178.1,230.7-186.3,383c-0.2,1.1-0.3,2.3-0.3,3.5c-7.3,152.5,47.7,293.7,142.8,398.8c94.8,104.9,229.4,173.7,381.6,182
	c1.1,0.2,2.3,0.3,3.5,0.3v-0.1c152.5,7.3,293.7-47.8,398.8-142.8c104.9-94.8,173.7-229.4,182-381.6c0.2-1.1,0.3-2.3,0.3-3.5
	c0.6-13.1,0.7-26.3,0.5-39.6C1241.8,639.4,1241.1,626.4,1239.9,613.7z M1189,690.8l-0.1,1.2v0.5c-7.4,138-69.7,259.9-164.7,345.8
	c-95.4,86.3-223.8,136.1-362.5,129.1l-1.2-0.1h-0.5c-138-7.4-259.9-69.7-345.8-164.7c-86.2-95.4-136.1-223.7-129.1-362.5l0.1-1.2
	v-0.5c7.5-137.8,71.9-260.3,169-346.8c90-80.3,208-129.5,334.6-131.2c-6.1,34.2-4.1,66.4,5.6,94.2c10.6,30.5,30.2,55.3,58.4,71.7
	c-13.7,55.7-12.1,106.1,1.6,148.5c10.1,31.2,26.7,58.1,48.4,79.6c21.8,21.6,48.6,37.6,79.3,47.1c41.9,13,90.8,14,143.4,0.2
	c23.7,30.4,50.6,50.7,81.4,59c25.8,7,53.2,5.5,82.5-5.6C1189.8,666.8,1189.7,678.6,1189,690.8z"/>
<path class="st2" d="M1239.9,613.7c-0.1-4.6-1.4-9.2-3.9-13.4c-7.6-12.4-23.8-16.3-36.1-8.6c-30.8,18.8-56.9,24.3-79.2,18.3
	c-22.7-6.1-43.4-24.4-62.4-52.6c-6.3-9.8-18.6-14.6-30.1-10.9c-48.9,15.7-93.5,16.5-130.2,5c-22.7-7.1-42.3-18.7-58.2-34.4
	c-15.8-15.6-27.8-35.2-35.3-58.2c-12.3-38-11.9-85.3,4.7-138.9h-0.1c4.2-13.2-2.7-27.4-15.8-32.3c-24.7-9.2-41.1-27.1-49.2-50.2
	c-8.9-25.5-8.2-57.6,2.5-92.3c1.4-3.1,2.1-6.6,2.1-10.2c0-14.6-11.7-26.3-26.3-26.3c-152.5-7.3-295.9,48.2-403,143.8
	c-107,95.4-178.1,230.7-186.3,383c-0.2,1.1-0.3,2.3-0.3,3.5c-7.3,152.5,47.7,293.7,142.8,398.8c94.8,104.9,229.4,173.7,381.6,182
	c1.1,0.2,2.3,0.3,3.5,0.3v-0.1c152.5,7.3,293.7-47.8,398.8-142.8c104.9-94.8,173.7-229.4,182-381.6c0.2-1.1,0.3-2.3,0.3-3.5
	c0.6-13.1,0.7-26.3,0.5-39.6C1241.8,639.4,1241.1,626.4,1239.9,613.7z M1189,690.8l-0.1,1.2v0.5c-7.4,138-69.7,259.9-164.7,345.8
	c-95.4,86.3-223.8,136.1-362.5,129.1l-1.2-0.1h-0.5c-138-7.4-259.9-69.7-345.8-164.7c-86.2-95.4-136.1-223.7-129.1-362.5l0.1-1.2
	v-0.5c7.5-137.8,71.9-260.3,169-346.8c90-80.3,208-129.5,334.6-131.2c-6.1,34.2-4.1,66.4,5.6,94.2c10.6,30.5,30.2,55.3,58.4,71.7
	c-13.7,55.7-12.1,106.1,1.6,148.5c10.1,31.2,26.7,58.1,48.4,79.6c21.8,21.6,48.6,37.6,79.3,47.1c41.9,13,90.8,14,143.4,0.2
	c23.7,30.4,50.6,50.7,81.4,59c25.8,7,53.2,5.5,82.5-5.6C1189.8,666.8,1189.7,678.6,1189,690.8z"/>
</svg>
