<?xml version="1.0" encoding="utf-8"?>
<!-- Generator: Adobe Illustrator 27.8.1, SVG Export Plug-In . SVG Version: 6.00 Build 0)  -->
<svg version="1.1" id="Layer_1" xmlns="http://www.w3.org/2000/svg" xmlns:xlink="http://www.w3.org/1999/xlink" x="0px" y="0px"
	 viewBox="0 0 500 500" style="enable-background:new 0 0 500 500;" xml:space="preserve">
<style type="text/css">
	.st0{fill:rgb(140,19,96);}
	.st1{fill:#FFFFFF;}
</style>
<g>
	<path class="st0" d="M250.42,29c-122.81,0-221.5,99.42-221.5,221.5s99.42,221.5,221.5,221.5c122.08,0,221.5-99.42,221.5-221.5
		C471.91,128.42,372.49,29,250.42,29z"/>
	<path class="st1" d="M317.67,187.63v-48.25H187.55v48.25h-21.93v-70.18H339.6v70.18H317.67z M128.34,209.56h248.54H128.34z
		 M346.91,244.65c2.92,0,5.85-1.46,7.31-3.66c1.46-2.19,3.66-4.39,3.66-7.31s-1.46-5.85-3.66-7.31c-2.19-2.19-4.39-3.66-7.31-3.66
		c-2.92,0-5.85,0.73-8.04,3.66c-2.19,2.19-2.92,4.39-2.92,7.31s0.73,5.85,2.92,7.31C341.79,243.19,343.99,244.65,346.91,244.65z
		 M317.67,358.68v-70.18H187.55v70.18H317.67z M339.6,380.62H165.62v-64.33h-59.21v-89.91c0-10.97,3.66-20.47,10.97-27.78
		s16.81-10.97,27.78-10.97h214.92c10.97,0,20.47,3.66,27.78,10.97s10.97,16.81,10.97,27.78v89.91H339.6L339.6,380.62L339.6,380.62z
		 M376.88,294.36v-67.98c0-5.12-1.46-8.77-5.12-11.7c-3.66-2.92-7.31-4.39-11.7-4.39H145.15c-5.12,0-8.77,1.46-11.7,5.12
		c-2.92,2.92-5.12,7.31-5.12,11.7v67.98h37.28v-27.78H339.6v27.78h37.28V294.36z"/>
</g>
</svg>
