<?xml version="1.0" encoding="utf-8"?>
<!-- Generator: Adobe Illustrator 28.1.0, SVG Export Plug-In . SVG Version: 6.00 Build 0)  -->
<svg version="1.1" id="Layer_1" xmlns="http://www.w3.org/2000/svg" xmlns:xlink="http://www.w3.org/1999/xlink" x="0px" y="0px"
	 viewBox="0 0 96 96" style="enable-background:new 0 0 96 96;" xml:space="preserve">
<style type="text/css">
	.st0{fill:#6B9CD3;}
	.st1{fill:#1E81C4;}
	.st2{fill:#5A94CE;}
	.st3{fill:#3686C7;}
	.st4{fill:#957485;}
	.st5{fill:#9F8090;}
	.st6{fill:#9F4B78;}
	.st7{fill:#B07091;}
	.st8{fill:#954E73;}
	.st9{fill:#BB85A0;}
	.st10{fill:#846072;}
	.st11{fill:#7B6786;}
	.st12{fill:#653E51;}
	.st13{fill:#0072BC;}
	.st14{fill:#8D1360;}
</style>
<g>
	<g>
		<path class="st0" d="M87.7,67.5C87.7,67.5,87.7,67.5,87.7,67.5C87.8,67.5,87.8,67.5,87.7,67.5L87.7,67.5 M74.5,67.9L74.5,67.9
			L74.5,67.9L74.5,67.9 M82.8,72l-8.3-4.1l0,0l13.3-0.4C87.4,67.8,82.8,72,82.8,72"/>
		<path class="st0" d="M74.5,67.9L74.5,67.9L74.5,67.9L74.5,67.9 M77.3,80.9l-2.9-13l0,0l6,7C80.5,75,77.4,80.4,77.3,80.9
			 M77.3,80.9C77.3,80.9,77.3,80.9,77.3,80.9L77.3,80.9C77.3,80.9,77.3,80.9,77.3,80.9"/>
		<polyline class="st1" points="74.5,67.9 74.5,67.9 74.5,67.9 74.5,67.9 74.5,67.9 		"/>
		<g>
			<path class="st2" d="M52,49.9c2-0.9,13.4-5.5,29.6-5.5c4,0,8.4,0.3,13,1c0,0-0.4,1.2-1.2,3.2c-6.1-0.8-11.9-1.1-17.1-1.1
				C63.5,47.4,54.2,49.4,52,49.9"/>
			<path class="st3" d="M57.5,92.9c-9-21.3-6.4-39.7-5.9-42.4c0.1,3.2,0.8,20.4,8.8,40.5C58.6,92.2,57.5,92.9,57.5,92.9"/>
			<path class="st4" d="M49.9,93.8c0,0-1.2-0.4-3.2-1.2c2.9-21.4-0.6-38.3-1.3-41.4C46.5,53.7,53.4,70.9,49.9,93.8"/>
			<path class="st5" d="M27.3,73.6L27.3,73.6L27.3,73.6L27.3,73.6 M27.7,86.9c-0.2-0.4-4.5-5-4.5-5l4.1-8.3l0,0L27.7,86.9
				 M27.7,86.9C27.7,86.9,27.7,86.9,27.7,86.9L27.7,86.9C27.7,86.9,27.7,86.9,27.7,86.9"/>
			<path class="st6" d="M4.3,59.5c-1.2-1.8-1.9-2.8-1.9-2.8C15.3,51.2,27.1,50,35,50c5.2,0,8.7,0.5,9.8,0.7
				C41.6,50.8,24.4,51.5,4.3,59.5"/>
			<path class="st7" d="M27.4,73.7L27.4,73.7L27.4,73.7L27.4,73.7 M20.3,79.7c0,0-5.5-3-5.9-3.2l13-2.9l0,0L20.3,79.7"/>
			<polyline class="st8" points="27.3,73.7 27.3,73.6 27.4,73.6 27.4,73.7 27.3,73.7 			"/>
			<path class="st9" d="M14.4,76.5C14.4,76.5,14.4,76.5,14.4,76.5C14.4,76.5,14.4,76.5,14.4,76.5L14.4,76.5"/>
			<path class="st0" d="M8.3,26.9c0.4-0.2,5-4.5,5-4.5l8.3,4.1l0,0L8.3,26.9 M8.3,26.9C8.3,26.9,8.3,26.9,8.3,26.9L8.3,26.9
				C8.3,26.9,8.3,26.9,8.3,26.9"/>
			<path class="st10" d="M44.5,43.9c0-0.6,0-1.8-0.2-3.4v0c0,0,0,0,0,0v0c0,0,0,0,0,0c-0.5-6.6-2.2-20.9-8.6-37.1
				c1.8-1.2,2.8-1.9,2.8-1.9C47.5,22.9,45,41.2,44.5,43.9"/>
			<path class="st5" d="M21.6,26.5L21.6,26.5l-6-7.1c0,0,3-5.5,3.2-5.9L21.6,26.5 M21.6,26.6L21.6,26.6L21.6,26.6L21.6,26.6"/>
			<polyline class="st11" points="21.6,26.5 21.6,26.5 21.6,26.5 21.6,26.5 21.6,26.5 			"/>
			<path class="st12" d="M18.7,13.5C26.8,6.7,34.9,1.4,34.9,1.4c9.7,23.1,9.6,43.1,9.6,43.1L21.6,26.6L18.7,13.5"/>
			<path class="st3" d="M14.4,50.1c-4,0-8.4-0.3-13-1c0,0,0.4-1.2,1.2-3.2C8.8,46.7,14.5,47,19.7,47c12.9,0,22.2-1.9,24.3-2.4
				C42,45.4,30.6,50.1,14.4,50.1"/>
			<g>
				<path class="st13" d="M8.3,26.9c-4.7,9.5-7.9,18.6-7.9,18.6c24.8,3.8,44.1-1.1,44.1-1.1L21.6,26.5L8.3,26.9"/>
			</g>
			<path class="st13" d="M87.8,67.5c4.7-9.5,7.9-18.6,7.9-18.6C70.8,45.1,51.5,50,51.5,50l22.9,17.9L87.8,67.5"/>
			<path class="st12" d="M77.3,80.9C69.3,87.7,61.2,93,61.2,93C51.4,69.9,51.5,50,51.5,50l22.9,17.9L77.3,80.9"/>
			<path class="st12" d="M27.7,86.9c9.5,4.7,18.6,7.9,18.6,7.9c3.8-24.8-1.1-44.1-1.1-44.1L27.4,73.6L27.7,86.9"/>
			<path class="st14" d="M14.4,76.5C7.5,68.4,2.2,60.3,2.2,60.3c23.1-9.7,43.1-9.6,43.1-9.6L27.4,73.6L14.4,76.5"/>
		</g>
	</g>
</g>
</svg>
