<?xml version="1.0" encoding="utf-8"?>
<!-- Generator: Adobe Illustrator 27.3.1, SVG Export Plug-In . SVG Version: 6.00 Build 0)  -->
<svg version="1.1" id="Layer_1" xmlns="http://www.w3.org/2000/svg" xmlns:xlink="http://www.w3.org/1999/xlink" x="0px" y="0px"
	 viewBox="0 0 203 299" style="enable-background:new 0 0 203 299;" xml:space="preserve">
<style type="text/css">
	.st0{fill:#FFFFFF;}
	.st1{opacity:0.64;fill:#FFFFFF;enable-background:new    ;}
	.st2{opacity:0.75;fill:#FFFFFF;enable-background:new    ;}
	.st3{fill:#1D80C3;}
	.st4{opacity:0.65;fill:#FFFFFF;enable-background:new    ;}
	.st5{opacity:0.57;fill:#FFFFFF;enable-background:new    ;}
	.st6{opacity:0.82;fill:#FFFFFF;enable-background:new    ;}
	.st7{fill:#944E73;}
	.st8{fill:#BC85A1;}
	.st9{opacity:0.76;fill:#FFFFFF;enable-background:new    ;}
	.st10{fill:#7B6785;}
	.st11{opacity:0.93;fill:#FFFFFF;enable-background:new    ;}
</style>
<path class="st0" d="M102.1,8.9c-51.7,0-93.7,41.9-93.7,93.7s93.7,187.3,93.7,187.3s93.7-135.6,93.7-187.3
	C195.7,50.8,153.8,8.9,102.1,8.9z M102,178.3c-41.1,0-74.4-33.3-74.4-74.4S60.9,29.5,102,29.5s74.4,33.3,74.4,74.4
	C176.5,144.9,143.2,178.3,102,178.3z"/>
<g>
	<g>
		<path class="st1" d="M153.3,123.2L153.3,123.2L153.3,123.2L153.3,123.2 M137.4,123.6L137.4,123.6L137.4,123.6L137.4,123.6
			 M147.4,128.6l-9.9-4.9v-0.1l15.9-0.4C152.9,123.5,147.4,128.6,147.4,128.6"/>
		<path class="st2" d="M137.4,123.6L137.4,123.6L137.4,123.6L137.4,123.6 M140.8,139.2l-3.4-15.5h0.1l7.2,8.4
			C144.7,132.1,141,138.7,140.8,139.2 M140.8,139.2L140.8,139.2L140.8,139.2L140.8,139.2"/>
		<polyline class="st3" points="137.5,123.7 137.4,123.6 137.4,123.6 137.4,123.6 137.5,123.7 		"/>
		<g>
			<path class="st0" d="M110.5,102c2.4-1.1,16.1-6.6,35.5-6.6c4.9,0,10.1,0.4,15.5,1.2c0,0-0.5,1.5-1.4,3.9
				c-7.4-1-14.3-1.4-20.5-1.4C124.2,99.1,113.2,101.4,110.5,102"/>
			<path class="st2" d="M117.1,153.6c-10.8-25.6-7.7-47.6-7.1-50.9c0.1,3.8,0.9,24.5,10.5,48.5C118.4,152.8,117.1,153.6,117.1,153.6
				"/>
			<path class="st4" d="M107.9,154.7c0,0-1.5-0.5-3.9-1.4c3.5-25.7-0.7-46-1.5-49.7C103.9,106.7,112.2,127.3,107.9,154.7"/>
			<path class="st5" d="M80.9,130.5L80.9,130.5L80.9,130.5L80.9,130.5 M81.4,146.4c-0.3-0.4-5.4-5.9-5.4-5.9l4.9-9.9H81L81.4,146.4
				 M81.4,146.5L81.4,146.5L81.4,146.5L81.4,146.5"/>
			<path class="st6" d="M53.3,113.6c-1.5-2.1-2.3-3.4-2.3-3.4c15.5-6.5,29.7-7.9,39.2-7.9c6.2,0,10.4,0.6,11.7,0.8
				C98,103.1,77.4,104,53.3,113.6"/>
			<path class="st6" d="M80.9,130.5L80.9,130.5L80.9,130.5L80.9,130.5 M72.5,137.8c0,0-6.6-3.6-7.1-3.8l15.5-3.4v0.1L72.5,137.8"/>
			<polyline class="st7" points="80.9,130.6 80.9,130.5 80.9,130.5 80.9,130.5 80.9,130.6 			"/>
			<path class="st8" d="M65.4,134C65.4,133.9,65.4,133.9,65.4,134C65.4,133.9,65.4,133.9,65.4,134L65.4,134"/>
			<path class="st1" d="M58.1,74.5c0.4-0.3,5.9-5.4,5.9-5.4l9.9,4.9v0.1L58.1,74.5 M58.1,74.5L58.1,74.5L58.1,74.5L58.1,74.5"/>
			<path class="st9" d="M101.5,94.9c0-0.7-0.1-2.1-0.2-4.1l0,0l0,0l0,0l0,0c-0.6-8-2.6-25.1-10.3-44.4c2.1-1.5,3.4-2.3,3.4-2.3
				C105.1,69.6,102,91.7,101.5,94.9"/>
			<path class="st2" d="M74,74L74,74l-7.2-8.4c0,0,3.6-6.6,3.8-7.1L74,74 M74.1,74.1L74.1,74.1L74.1,74.1L74.1,74.1"/>
			<polyline class="st10" points="74,74 74,74 74,74 74,74 74,74 			"/>
			<path class="st0" d="M70.6,58.5C80.2,50.3,90,43.9,90,43.9c11.6,27.7,11.5,51.6,11.5,51.6L74.1,74.1L70.6,58.5"/>
			<path class="st0" d="M65.4,102.2c-4.9,0-10.1-0.4-15.5-1.2c0,0,0.5-1.5,1.4-3.9c7.4,1,14.3,1.4,20.5,1.4
				c15.5,0,26.6-2.3,29.2-2.9C98.5,96.7,84.8,102.2,65.4,102.2"/>
			<g>
				<path class="st2" d="M58.1,74.5c-5.6,11.4-9.4,22.3-9.4,22.3c29.7,4.6,52.9-1.3,52.9-1.3L74.2,74.1L58.1,74.5"/>
			</g>
			<path class="st2" d="M153.4,123.2c5.6-11.4,9.4-22.3,9.4-22.3c-29.7-4.6-52.9,1.3-52.9,1.3l27.5,21.4L153.4,123.2"/>
			<path class="st0" d="M140.8,139.2c-9.6,8.2-19.4,14.6-19.4,14.6c-11.7-27.7-11.5-51.6-11.5-51.6l27.5,21.4L140.8,139.2"/>
			<path class="st0" d="M81.4,146.5c11.4,5.6,22.3,9.4,22.3,9.4c4.6-29.7-1.3-52.9-1.3-52.9L81,130.4L81.4,146.5"/>
			<path class="st11" d="M65.4,134c-8.2-9.7-14.6-19.4-14.6-19.4c27.7-11.6,51.6-11.5,51.6-11.5L81,130.6L65.4,134"/>
		</g>
	</g>
</g>
</svg>
